<svg width="268" height="200" viewBox="0 0 268 200" fill="none" xmlns="http://www.w3.org/2000/svg">
<path d="M267.968 175.789H0.896729V175.922H267.968V175.789Z" fill="#EBEBEB"/>
<path d="M241.207 184.384H223.516V184.517H241.207V184.384Z" fill="#EBEBEB"/>
<path d="M177.815 185.836H173.174V185.97H177.815V185.836Z" fill="#EBEBEB"/>
<path d="M222.982 179.427H212.732V179.56H222.982V179.427Z" fill="#EBEBEB"/>
<path d="M51.9874 180.324H28.9178V180.458H51.9874V180.324Z" fill="#EBEBEB"/>
<path d="M60.1278 180.324H56.7467V180.458H60.1278V180.324Z" fill="#EBEBEB"/>
<path d="M121.159 182.578H71.1204V182.712H121.159V182.578Z" fill="#EBEBEB"/>
<path d="M127.488 151.966H24.3509C23.5429 151.965 22.7685 151.643 22.1977 151.071C21.6269 150.499 21.3063 149.724 21.3063 148.916V3.93413C21.3133 3.1308 21.637 2.36268 22.2071 1.79661C22.7771 1.23055 23.5475 0.912265 24.3509 0.910889H127.488C128.297 0.910889 129.073 1.23222 129.645 1.8042C130.217 2.37618 130.538 3.15194 130.538 3.96084V148.916C130.538 149.725 130.217 150.501 129.645 151.073C129.073 151.645 128.297 151.966 127.488 151.966ZM24.3509 1.01772C23.5783 1.01913 22.8379 1.32702 22.2921 1.8738C21.7463 2.42058 21.4398 3.16158 21.4398 3.93413V148.916C21.4398 149.689 21.7463 150.43 22.2921 150.977C22.8379 151.523 23.5783 151.831 24.3509 151.833H127.488C128.261 151.831 129.002 151.524 129.549 150.977C130.096 150.43 130.403 149.689 130.405 148.916V3.93413C130.403 3.16109 130.096 2.4201 129.549 1.87347C129.002 1.32685 128.261 1.01913 127.488 1.01772H24.3509Z" fill="#EBEBEB"/>
<path d="M243.029 151.966H139.886C139.077 151.965 138.302 151.643 137.731 151.071C137.159 150.5 136.837 149.725 136.836 148.916V3.93413C136.844 3.13031 137.169 2.36219 137.74 1.79628C138.311 1.23036 139.082 0.91225 139.886 0.910889H243.029C243.831 0.913669 244.6 1.23258 245.169 1.79849C245.738 2.3644 246.061 3.13172 246.068 3.93413V148.916C246.068 149.723 245.748 150.498 245.178 151.069C244.609 151.641 243.836 151.963 243.029 151.966ZM139.886 1.01772C139.113 1.01913 138.372 1.32685 137.825 1.87347C137.278 2.4201 136.971 3.16109 136.969 3.93413V148.916C136.971 149.689 137.278 150.43 137.825 150.977C138.372 151.524 139.113 151.831 139.886 151.833H243.029C243.802 151.831 244.543 151.524 245.089 150.977C245.636 150.43 245.944 149.689 245.945 148.916V3.93413C245.944 3.16109 245.636 2.4201 245.089 1.87347C244.543 1.32685 243.802 1.01913 243.029 1.01772H139.886Z" fill="#EBEBEB"/>
<path d="M90.5258 26.7473H52.4681V155.855H90.5258V26.7473Z" fill="#FAFAFA"/>
<path d="M84.8585 26.7473H82.6365L69.363 155.855H71.5851L84.8585 26.7473Z" fill="#F5F5F5"/>
<path d="M89.8527 27.2495H52.2224V28.3872H89.8527V27.2495Z" fill="#E0E0E0"/>
<path d="M89.8527 154.728H52.2224V157.163H89.8527V154.728Z" fill="#EBEBEB"/>
<path d="M89.2279 157.057H53.67V157.163H89.2279V157.057Z" fill="#EBEBEB"/>
<path d="M53.67 27.2494H89.2279V157.057H91.3591V25.6523H51.5388V157.057H53.67V27.2494Z" fill="#EBEBEB"/>
<path d="M132.878 26.7473H94.8203V155.855H132.878V26.7473Z" fill="#FAFAFA"/>
<path d="M122.318 26.7473H110.187L96.9141 155.855H109.044L122.318 26.7473Z" fill="#F5F5F5"/>
<path d="M133.273 27.2495H94.5746V28.3872H133.273V27.2495Z" fill="#E0E0E0"/>
<path d="M133.273 154.728H94.5746V157.163H133.273V154.728Z" fill="#EBEBEB"/>
<path d="M131.58 157.057H96.0221V157.163H131.58V157.057Z" fill="#EBEBEB"/>
<path d="M96.0221 27.2494H131.58V157.057H133.706V25.6523H93.8909V157.057H96.0221V27.2494Z" fill="#EBEBEB"/>
<path d="M174.156 26.7473H137.167V155.855H174.156V26.7473Z" fill="#FAFAFA"/>
<path d="M158.127 26.7473H155.905L142.631 155.855H144.853L158.127 26.7473Z" fill="#F5F5F5"/>
<path d="M174.557 27.2495H136.927V28.3872H174.557V27.2495Z" fill="#E0E0E0"/>
<path d="M174.557 154.728H136.927V157.163H174.557V154.728Z" fill="#EBEBEB"/>
<path d="M173.932 157.057H138.374V157.163H173.932V157.057Z" fill="#EBEBEB"/>
<path d="M138.374 27.2494H173.927V157.057H176.058V25.6523H136.243V157.057H138.374V27.2494Z" fill="#EBEBEB"/>
<path d="M217.577 26.7473H179.519V155.855H217.577V26.7473Z" fill="#FAFAFA"/>
<path d="M213.854 26.7473H201.723L188.445 155.855H200.58L213.854 26.7473Z" fill="#F5F5F5"/>
<path d="M216.904 27.2495H179.273V28.3872H216.904V27.2495Z" fill="#E0E0E0"/>
<path d="M216.904 154.728H179.273V157.163H216.904V154.728Z" fill="#EBEBEB"/>
<path d="M180.721 27.2494H216.279V157.057H218.41V25.6523H178.595V157.057H180.721V27.2494Z" fill="#EBEBEB"/>
<path d="M216.279 157.057H180.721V157.163H216.279V157.057Z" fill="#EBEBEB"/>
<path d="M78.7479 126.151H62.2269V154.722H78.7479V126.151Z" fill="#EBEBEB"/>
<path d="M75.5752 122.156V129.324H74.2772H66.7031H65.3998V122.156H75.5752Z" fill="#EBEBEB"/>
<path d="M75.5751 129.324H77.6903V127.209H75.5751V129.324Z" fill="#FAFAFA"/>
<path d="M71.4835 129.324H73.5988V127.209H71.4835V129.324Z" fill="#FAFAFA"/>
<path d="M67.3868 129.324H69.502V127.209H67.3868V129.324Z" fill="#FAFAFA"/>
<path d="M63.2899 129.324H65.4052V127.209H63.2899V129.324Z" fill="#F0F0F0"/>
<path d="M75.5751 133.17H77.6903V131.054H75.5751V133.17Z" fill="#F0F0F0"/>
<path d="M71.4835 133.17H73.5988V131.054H71.4835V133.17Z" fill="#F0F0F0"/>
<path d="M67.3868 133.17H69.502V131.054H67.3868V133.17Z" fill="#FAFAFA"/>
<path d="M63.2899 133.17H65.4052V131.054H63.2899V133.17Z" fill="#FAFAFA"/>
<path d="M75.5751 137.01H77.6903V134.895H75.5751V137.01Z" fill="#F0F0F0"/>
<path d="M71.4835 137.01H73.5988V134.895H71.4835V137.01Z" fill="#FAFAFA"/>
<path d="M67.3868 137.01H69.502V134.895H67.3868V137.01Z" fill="#FAFAFA"/>
<path d="M71.4835 126.002H73.5988V123.887H71.4835V126.002Z" fill="#FAFAFA"/>
<path d="M67.3868 126.002H69.502V123.887H67.3868V126.002Z" fill="#F0F0F0"/>
<path d="M63.2899 137.01H65.4052V134.895H63.2899V137.01Z" fill="#F0F0F0"/>
<path d="M75.5751 140.851H77.6903V138.736H75.5751V140.851Z" fill="#FAFAFA"/>
<path d="M71.4835 140.851H73.5988V138.736H71.4835V140.851Z" fill="#F0F0F0"/>
<path d="M67.3868 140.851H69.502V138.736H67.3868V140.851Z" fill="#F0F0F0"/>
<path d="M63.2899 140.851H65.4052V138.736H63.2899V140.851Z" fill="#FAFAFA"/>
<path d="M75.5751 144.697H77.6903V142.581H75.5751V144.697Z" fill="#F0F0F0"/>
<path d="M71.4835 144.697H73.5988V142.581H71.4835V144.697Z" fill="#FAFAFA"/>
<path d="M67.3868 144.697H69.502V142.581H67.3868V144.697Z" fill="#FAFAFA"/>
<path d="M63.2899 144.697H65.4052V142.581H63.2899V144.697Z" fill="#F0F0F0"/>
<path d="M75.5751 148.537H77.6903V146.422H75.5751V148.537Z" fill="#F0F0F0"/>
<path d="M71.4835 148.537H73.5988V146.422H71.4835V148.537Z" fill="#FAFAFA"/>
<path d="M67.3868 148.537H69.502V146.422H67.3868V148.537Z" fill="#F0F0F0"/>
<path d="M63.2899 148.537H65.4052V146.422H63.2899V148.537Z" fill="#FAFAFA"/>
<path d="M75.5751 152.388H77.6903V150.273H75.5751V152.388Z" fill="#FAFAFA"/>
<path d="M71.4835 152.388H73.5988V150.273H71.4835V152.388Z" fill="#FAFAFA"/>
<path d="M67.3868 152.388H69.502V150.273H67.3868V152.388Z" fill="#F0F0F0"/>
<path d="M63.2899 152.388H65.4052V150.273H63.2899V152.388Z" fill="#F0F0F0"/>
<path d="M171.897 126.151H155.376V154.722H171.897V126.151Z" fill="#EBEBEB"/>
<path d="M168.73 122.156V129.324H167.426H159.852H158.549V122.156H168.73Z" fill="#EBEBEB"/>
<path d="M168.724 129.324H170.839V127.209H168.724V129.324Z" fill="#FAFAFA"/>
<path d="M164.627 129.324H166.742V127.209H164.627V129.324Z" fill="#FAFAFA"/>
<path d="M160.536 129.324H162.651V127.209H160.536V129.324Z" fill="#FAFAFA"/>
<path d="M156.439 129.324H158.554V127.209H156.439V129.324Z" fill="#F0F0F0"/>
<path d="M168.724 133.17H170.839V131.054H168.724V133.17Z" fill="#F0F0F0"/>
<path d="M164.627 133.17H166.742V131.054H164.627V133.17Z" fill="#F0F0F0"/>
<path d="M160.536 133.17H162.651V131.054H160.536V133.17Z" fill="#FAFAFA"/>
<path d="M156.439 133.17H158.554V131.054H156.439V133.17Z" fill="#FAFAFA"/>
<path d="M168.724 137.01H170.839V134.895H168.724V137.01Z" fill="#F0F0F0"/>
<path d="M164.627 137.01H166.742V134.895H164.627V137.01Z" fill="#FAFAFA"/>
<path d="M160.536 137.01H162.651V134.895H160.536V137.01Z" fill="#FAFAFA"/>
<path d="M164.627 126.002H166.742V123.887H164.627V126.002Z" fill="#FAFAFA"/>
<path d="M160.536 126.002H162.651V123.887H160.536V126.002Z" fill="#F0F0F0"/>
<path d="M156.439 137.01H158.554V134.895H156.439V137.01Z" fill="#F0F0F0"/>
<path d="M168.724 140.851H170.839V138.736H168.724V140.851Z" fill="#FAFAFA"/>
<path d="M164.627 140.851H166.742V138.736H164.627V140.851Z" fill="#F0F0F0"/>
<path d="M160.536 140.851H162.651V138.736H160.536V140.851Z" fill="#F0F0F0"/>
<path d="M156.439 140.851H158.554V138.736H156.439V140.851Z" fill="#FAFAFA"/>
<path d="M168.724 144.697H170.839V142.581H168.724V144.697Z" fill="#F0F0F0"/>
<path d="M164.627 144.697H166.742V142.581H164.627V144.697Z" fill="#FAFAFA"/>
<path d="M160.536 144.697H162.651V142.581H160.536V144.697Z" fill="#FAFAFA"/>
<path d="M156.439 144.697H158.554V142.581H156.439V144.697Z" fill="#F0F0F0"/>
<path d="M168.724 148.537H170.839V146.422H168.724V148.537Z" fill="#F0F0F0"/>
<path d="M164.627 148.537H166.742V146.422H164.627V148.537Z" fill="#FAFAFA"/>
<path d="M160.536 148.537H162.651V146.422H160.536V148.537Z" fill="#F0F0F0"/>
<path d="M156.439 148.537H158.554V146.422H156.439V148.537Z" fill="#FAFAFA"/>
<path d="M168.724 152.388H170.839V150.273H168.724V152.388Z" fill="#FAFAFA"/>
<path d="M164.627 152.388H166.742V150.273H164.627V152.388Z" fill="#FAFAFA"/>
<path d="M160.536 152.388H162.651V150.273H160.536V152.388Z" fill="#F0F0F0"/>
<path d="M156.439 152.388H158.554V150.273H156.439V152.388Z" fill="#F0F0F0"/>
<path d="M198.145 136.556H183.344V154.717H198.145V136.556Z" fill="#F0F0F0"/>
<path d="M184.631 138.57H188.071H189.022H189.967V140.466H189.022H188.071H184.631V138.57Z" fill="#E6E6E6"/>
<path d="M184.631 142.245H188.071H189.022H189.967V144.136H189.022H188.071H184.631V142.245Z" fill="#FAFAFA"/>
<path d="M184.631 145.914H188.071H189.022H189.967V147.805H189.022H188.071H184.631V145.914Z" fill="#E6E6E6"/>
<path d="M184.631 149.584H188.071H189.54H189.967V151.48H189.54H188.071H184.631V149.584Z" fill="#FAFAFA"/>
<path d="M191.516 138.57H194.961H195.907H196.852V140.466H195.907H194.961H191.516V138.57Z" fill="#FAFAFA"/>
<path d="M191.516 142.245H194.961H196.297H196.852V144.136H196.297H194.961H191.516V142.245Z" fill="#FAFAFA"/>
<path d="M191.516 145.914H194.961H195.907H196.852V147.805H195.907H194.961H191.516V145.914Z" fill="#E6E6E6"/>
<path d="M191.516 149.584H194.961H195.907H196.852V151.48H195.907H194.961H191.516V149.584Z" fill="#FAFAFA"/>
<path d="M127.558 143.436H114.108V154.722H127.558V143.436Z" fill="#F0F0F0"/>
<path d="M124.973 146.566H126.693V144.846H124.973V146.566Z" fill="#FAFAFA"/>
<path d="M121.634 146.566H123.354V144.846H121.634V146.566Z" fill="#FAFAFA"/>
<path d="M118.307 146.566H120.026V144.846H118.307V146.566Z" fill="#FAFAFA"/>
<path d="M114.968 146.566H116.688V144.846H114.968V146.566Z" fill="#FAFAFA"/>
<path d="M124.973 149.691H126.693V147.971H124.973V149.691Z" fill="#FAFAFA"/>
<path d="M121.634 149.691H123.354V147.971H121.634V149.691Z" fill="#FAFAFA"/>
<path d="M118.307 149.691H120.026V147.971H118.307V149.691Z" fill="#FAFAFA"/>
<path d="M114.968 149.691H116.688V147.971H114.968V149.691Z" fill="#E6E6E6"/>
<path d="M124.973 152.815H126.693V151.095H124.973V152.815Z" fill="#E6E6E6"/>
<path d="M121.634 152.815H123.354V151.095H121.634V152.815Z" fill="#E6E6E6"/>
<path d="M118.307 152.815H120.026V151.095H118.307V152.815Z" fill="#FAFAFA"/>
<path d="M114.968 152.815H116.688V151.095H114.968V152.815Z" fill="#E6E6E6"/>
<path d="M153.966 143.436H140.516V154.722H153.966V143.436Z" fill="#F0F0F0"/>
<path d="M151.386 146.566H153.106V144.846H151.386V146.566Z" fill="#FAFAFA"/>
<path d="M148.048 146.566H149.768V144.846H148.048V146.566Z" fill="#FAFAFA"/>
<path d="M144.709 146.566H146.429V144.846H144.709V146.566Z" fill="#FAFAFA"/>
<path d="M141.382 146.566H143.101V144.846H141.382V146.566Z" fill="#FAFAFA"/>
<path d="M151.386 149.691H153.106V147.971H151.386V149.691Z" fill="#FAFAFA"/>
<path d="M148.048 149.691H149.768V147.971H148.048V149.691Z" fill="#FAFAFA"/>
<path d="M144.709 149.691H146.429V147.971H144.709V149.691Z" fill="#FAFAFA"/>
<path d="M141.382 149.691H143.101V147.971H141.382V149.691Z" fill="#E6E6E6"/>
<path d="M151.386 152.815H153.106V151.095H151.386V152.815Z" fill="#E6E6E6"/>
<path d="M148.048 152.815H149.768V151.095H148.048V152.815Z" fill="#E6E6E6"/>
<path d="M144.709 152.815H146.429V151.095H144.709V152.815Z" fill="#FAFAFA"/>
<path d="M141.382 152.815H143.101V151.095H141.382V152.815Z" fill="#E6E6E6"/>
<path d="M112.287 135.087H98.837V154.717H112.287V135.087Z" fill="#F0F0F0"/>
<path d="M111.427 135.953H106.368V140.803H111.427V135.953Z" fill="#FAFAFA"/>
<path d="M104.755 135.953H99.697V140.803H104.755V135.953Z" fill="#FAFAFA"/>
<path d="M111.427 142.208H106.368V147.058H111.427V142.208Z" fill="#FAFAFA"/>
<path d="M104.755 142.208H99.697V147.058H104.755V142.208Z" fill="#FAFAFA"/>
<path d="M111.427 148.462H106.368V153.312H111.427V148.462Z" fill="#FAFAFA"/>
<path d="M104.755 148.462H99.697V153.312H104.755V148.462Z" fill="#FAFAFA"/>
<path d="M213.843 135.087H200.393V154.717H213.843V135.087Z" fill="#F0F0F0"/>
<path d="M212.983 135.953H207.925V140.803H212.983V135.953Z" fill="#FAFAFA"/>
<path d="M206.312 135.953H201.253V140.803H206.312V135.953Z" fill="#FAFAFA"/>
<path d="M212.983 142.208H207.925V147.058H212.983V142.208Z" fill="#FAFAFA"/>
<path d="M206.312 142.208H201.253V147.058H206.312V142.208Z" fill="#FAFAFA"/>
<path d="M212.983 148.462H207.925V153.312H212.983V148.462Z" fill="#FAFAFA"/>
<path d="M206.312 148.462H201.253V153.312H206.312V148.462Z" fill="#FAFAFA"/>
<path d="M45.4389 161.73C45.4389 161.73 42.7362 155.855 45.8235 150.011C48.9108 144.168 49.8135 142.827 47.8426 141.63C45.8716 140.434 44.9689 146.288 44.9689 146.288C43.9976 143.645 43.9021 140.759 44.6965 138.057C46.0639 133.848 46.9238 126.995 45.0543 126.258C43.1848 125.521 44.6965 134.804 43.0673 137.977C42.2355 135.754 41.6969 133.432 41.4649 131.07C41.2406 127.689 41.5931 122.289 40.1135 120.922C38.634 119.554 37.6885 120.494 39.1414 127.956C40.0146 132.414 40.4972 136.939 40.5836 141.481C40.5836 141.481 37.3787 131.695 35.2422 131.407C33.1056 131.118 33.1056 134.291 34.9377 137.042C36.7698 139.793 40.3379 144.718 40.9201 147.25C40.9201 147.25 37.3947 139.884 34.2273 142.143C31.0598 144.403 36.9888 148.847 39.6275 150.454C42.2661 152.062 44.1036 162.136 44.1036 162.136L45.4389 161.73Z" fill="#E0E0E0"/>
<path d="M43.3022 164.15C43.3022 164.15 45.9355 158.21 42.768 152.442C39.6006 146.673 38.6925 145.311 40.6315 144.093C42.5704 142.875 43.5586 148.703 43.5586 148.703C43.5586 148.703 45.161 144.654 43.7509 140.466C42.3407 136.279 41.3846 129.436 43.2488 128.672C45.1129 127.909 43.7081 137.219 45.3853 140.359C46.1895 138.121 46.6977 135.786 46.897 133.416C47.0786 130.034 46.6619 124.64 48.1255 123.235C49.589 121.83 50.5452 122.77 49.1938 130.253C48.3704 134.728 47.9379 139.266 47.9012 143.815C47.9012 143.815 50.9938 133.982 53.1464 133.667C55.299 133.351 55.3311 136.514 53.5203 139.291C51.7096 142.069 48.211 147.047 47.6448 149.589C47.6448 149.589 51.0793 142.17 54.2735 144.381C57.4676 146.593 51.6028 151.128 48.9748 152.773C46.3468 154.418 44.6375 164.524 44.6375 164.524L43.3022 164.15Z" fill="#EBEBEB"/>
<path d="M55.4541 159.92H33.6931L35.4558 175.485H53.6914L55.4541 159.92Z" fill="#EBEBEB"/>
<path d="M218.549 158.809C218.629 158.275 220.429 145.834 216.818 141.535C216.458 141.082 216.002 140.715 215.483 140.46C214.964 140.205 214.395 140.069 213.816 140.06C206.52 139.889 205.521 145.749 205.51 145.808L206.376 145.941C206.408 145.728 207.273 140.771 213.795 140.931C214.25 140.935 214.698 141.042 215.106 141.244C215.514 141.445 215.871 141.737 216.151 142.095C219.516 146.096 217.705 158.558 217.689 158.68L218.549 158.809Z" fill="#EBEBEB"/>
<path d="M218.987 158.242L219.858 158.216C219.858 158.098 219.569 146.742 225.167 144.397C230.647 142.101 233.115 146.822 233.216 147.025L233.996 146.635C233.964 146.582 231.075 140.979 224.83 143.596C218.682 146.197 218.976 157.751 218.987 158.242Z" fill="#EBEBEB"/>
<path d="M218.966 159.135C218.966 158.953 219.019 140.974 222.518 135.739C225.877 130.697 231.304 133.068 231.534 133.175L231.892 132.385C231.828 132.353 225.573 129.591 221.791 135.258C218.148 140.728 218.095 158.381 218.095 159.135H218.966Z" fill="#EBEBEB"/>
<path d="M212.769 140.487C212.769 140.487 215.974 141.663 215.007 144.435C214.041 147.207 203.988 151.769 203.988 151.769C203.988 151.769 199.774 147.907 203.646 141.62C207.519 135.333 212.684 138.506 212.769 140.487Z" fill="#E0E0E0"/>
<path d="M222.678 134.794C222.678 134.794 220.413 134.553 220.595 133.191C220.776 131.829 229.387 128.266 234.483 134.003C234.483 134.003 231.23 139.59 226.529 139.66C221.829 139.729 222.678 134.794 222.678 134.794Z" fill="#E0E0E0"/>
<path d="M224.996 143.997C224.996 143.997 223.436 142.736 225.119 142.122C226.801 141.508 235.07 141.684 235.155 149.867C235.155 149.867 225.541 151.469 224.339 148.35C223.137 145.231 224.996 143.997 224.996 143.997Z" fill="#E0E0E0"/>
<path d="M211.06 175.485H226L227.608 159.135H209.447L211.06 175.485Z" fill="#EBEBEB"/>
<path d="M208.646 160.935H228.404V157.324H208.646V160.935Z" fill="#E0E0E0"/>
<path d="M134.432 199.911C191.63 199.911 237.997 197.204 237.997 193.864C237.997 190.525 191.63 187.818 134.432 187.818C77.235 187.818 30.8674 190.525 30.8674 193.864C30.8674 197.204 77.235 199.911 134.432 199.911Z" fill="#F5F5F5"/>
<path d="M213.79 189.506L217.78 189.955L217.283 178.171L212.524 178.844L213.79 189.506Z" fill="#263238"/>
<path d="M192.958 189.645L196.98 189.244L198.006 178.909H193.199L192.958 189.645Z" fill="#263238"/>
<path opacity="0.6" d="M213.79 189.506L217.78 189.955L217.283 178.171L212.524 178.844L213.79 189.506Z" fill="white"/>
<path opacity="0.6" d="M192.958 189.645L196.98 189.244L198.006 178.909H193.199L192.958 189.645Z" fill="white"/>
<path d="M212.695 102.462C212.695 102.462 212.289 105.133 212.075 105.133C211.861 105.133 209.404 102.772 209.404 102.772L211.055 100.486L212.695 102.462Z" fill="#263238"/>
<path opacity="0.6" d="M212.695 102.462C212.695 102.462 212.289 105.133 212.075 105.133C211.861 105.133 209.404 102.772 209.404 102.772L211.055 100.486L212.695 102.462Z" fill="white"/>
<path d="M208.389 70.7341C210.809 71.2683 217.887 87.0629 218.538 89.568C219.19 92.0731 213.042 103.627 213.042 103.627L210.088 100.363L213.485 89.5787L207.877 79.649L208.389 70.7341Z" fill="#263238"/>
<path opacity="0.8" d="M208.389 70.7341C210.809 71.2683 217.887 87.0629 218.538 89.568C219.19 92.0731 213.042 103.627 213.042 103.627L210.088 100.363L213.485 89.5787L207.877 79.649L208.389 70.7341Z" fill="white"/>
<path d="M218.432 188.929H213.485C213.405 188.929 213.326 188.957 213.263 189.007C213.2 189.058 213.156 189.128 213.138 189.207L212.305 192.801C212.284 192.889 212.284 192.979 212.304 193.067C212.325 193.154 212.365 193.236 212.421 193.305C212.478 193.374 212.55 193.429 212.632 193.466C212.714 193.503 212.803 193.52 212.892 193.517C214.495 193.491 215.633 193.4 217.63 193.4C218.864 193.4 222.566 193.528 224.264 193.528C225.963 193.528 226.198 191.851 225.509 191.696C222.4 191.017 220.061 190.093 219.072 189.18C218.896 189.022 218.668 188.933 218.432 188.929Z" fill="#263238"/>
<path d="M197.055 102.857C197.055 102.857 198.524 110.512 200.361 119.715C201.43 125.019 202.605 130.83 203.694 136.001C204.09 137.86 204.469 139.633 204.832 141.273C207.61 153.879 212.663 187.262 212.663 187.262L218.928 186.226C218.928 186.226 217.684 149.942 215.697 137.085C213.886 125.334 210.222 98.1729 210.222 98.1729L197.055 102.857Z" fill="#263238"/>
<path opacity="0.2" d="M200.361 119.715C201.43 125.019 202.605 130.83 203.695 136.001C204.979 129.023 204.427 121.831 202.092 115.132C201.401 116.614 200.822 118.146 200.361 119.715Z" fill="black"/>
<path d="M197.589 188.929H192.654C192.573 188.929 192.495 188.957 192.432 189.007C192.369 189.058 192.325 189.128 192.307 189.207L191.473 192.801C191.453 192.888 191.453 192.979 191.473 193.065C191.492 193.152 191.532 193.233 191.588 193.303C191.645 193.372 191.716 193.427 191.797 193.464C191.878 193.502 191.966 193.52 192.056 193.517C193.658 193.491 194.801 193.4 196.799 193.4C198.027 193.4 201.734 193.528 203.433 193.528C205.131 193.528 205.366 191.851 204.672 191.696C201.563 191.017 199.224 190.093 198.236 189.18C198.058 189.02 197.828 188.93 197.589 188.929Z" fill="#263238"/>
<path d="M202.225 98.7231C202.225 98.7231 202.044 126.157 202.193 138.02C202.359 151.01 198.422 187.161 198.422 187.161L192.087 186.627C192.087 186.627 191.836 153.51 190.854 140.643C189.753 126.253 188.909 101.442 188.909 101.442L202.225 98.7231Z" fill="#263238"/>
<path d="M188.915 102.462C188.915 100.325 188.648 96.9335 188.562 93.9797C188.482 91.2716 188.322 88.275 188.028 85.1396C187.609 80.6383 186.853 76.1747 185.769 71.7861C185.769 71.7861 188.327 71.1184 191.227 70.6857C191.794 70.6003 192.381 70.5255 192.958 70.4614C196.008 70.1084 199.075 69.9301 202.145 69.9272C202.525 69.9272 202.898 69.954 203.262 69.986C204.991 70.1145 206.711 70.3499 208.411 70.6911C208.411 70.6911 213.133 81.2564 210.793 101.639L188.915 102.462Z" fill="#263238"/>
<path opacity="0.8" d="M188.915 102.462C188.915 100.325 188.648 96.9335 188.562 93.9797C188.482 91.2716 188.322 88.275 188.028 85.1396C187.609 80.6383 186.853 76.1747 185.769 71.7861C185.769 71.7861 188.327 71.1184 191.227 70.6857C191.794 70.6003 192.381 70.5255 192.958 70.4614C196.008 70.1084 199.075 69.9301 202.145 69.9272C202.525 69.9272 202.898 69.954 203.262 69.986C204.991 70.1145 206.711 70.3499 208.411 70.6911C208.411 70.6911 213.133 81.2564 210.793 101.639L188.915 102.462Z" fill="white"/>
<path opacity="0.2" d="M187.131 78.4629C187.51 80.7277 187.788 82.9657 188.007 85.1397C188.044 85.5136 188.076 85.8821 188.108 86.2507C188.809 83.9739 189.082 81.587 188.915 79.2107C188.378 78.8412 187.77 78.5867 187.131 78.4629Z" fill="black"/>
<path d="M193.37 60.0991C194.085 63.0209 194.919 68.3997 192.942 70.4828C193.899 71.3815 195.039 72.0629 196.283 72.4805C197.528 72.8981 198.848 73.0421 200.153 72.9025C202.696 72.6995 202.738 70.9208 202.124 69.9647C198.791 69.3665 198.764 66.9201 199.234 64.5913L193.37 60.0991Z" fill="#263238"/>
<path opacity="0.6" d="M193.37 60.0991C194.085 63.0209 194.919 68.3997 192.942 70.4828C193.899 71.3815 195.039 72.0629 196.283 72.4805C197.528 72.8981 198.848 73.0421 200.153 72.9025C202.696 72.6995 202.738 70.9208 202.124 69.9647C198.791 69.3665 198.764 66.9201 199.234 64.5913L193.37 60.0991Z" fill="white"/>
<path opacity="0.2" d="M195.757 61.9314L199.229 64.6021C199.113 65.1436 199.043 65.694 199.021 66.2473C197.755 66.1351 195.96 64.8532 195.768 63.5392C195.665 63.0084 195.662 62.4634 195.757 61.9314Z" fill="black"/>
<path d="M191.922 56.1893C192.905 60.1313 193.279 62.4922 195.661 64.148C199.266 66.6371 203.849 63.8489 204.063 59.6773C204.255 55.9383 202.616 50.1054 198.417 49.2828C197.488 49.1018 196.528 49.1592 195.627 49.4497C194.725 49.7402 193.913 50.2543 193.264 50.944C192.615 51.6337 192.152 52.4765 191.917 53.3938C191.683 54.311 191.684 55.2728 191.922 56.1893Z" fill="#263238"/>
<path opacity="0.6" d="M191.922 56.1893C192.905 60.1313 193.279 62.4922 195.661 64.148C199.266 66.6371 203.849 63.8489 204.063 59.6773C204.255 55.9383 202.616 50.1054 198.417 49.2828C197.488 49.1018 196.528 49.1592 195.627 49.4497C194.725 49.7402 193.913 50.2543 193.264 50.944C192.615 51.6337 192.152 52.4765 191.917 53.3938C191.683 54.311 191.684 55.2728 191.922 56.1893Z" fill="white"/>
<path d="M198.177 56.1252C198.236 56.451 198.46 56.6594 198.668 56.6594C198.877 56.6594 199.005 56.3175 198.946 55.997C198.887 55.6765 198.663 55.4629 198.455 55.4629C198.246 55.4629 198.118 55.7994 198.177 56.1252Z" fill="#263238"/>
<path d="M201.846 55.3933C201.91 55.7191 202.129 55.9274 202.343 55.9274C202.557 55.9274 202.68 55.5909 202.615 55.2651C202.551 54.9393 202.338 54.731 202.124 54.731C201.91 54.731 201.788 55.0782 201.846 55.3933Z" fill="#263238"/>
<path opacity="0.2" d="M200.714 55.7939C201.291 56.6768 201.989 57.475 202.786 58.1655C202.591 58.3595 202.357 58.5101 202.099 58.6076C201.841 58.7051 201.566 58.7474 201.291 58.7317L200.714 55.7939Z" fill="black"/>
<path d="M199.779 60.3128C199.923 60.3076 200.066 60.2897 200.206 60.2594C200.219 60.2575 200.231 60.253 200.242 60.2463C200.253 60.2396 200.263 60.2307 200.27 60.2203C200.278 60.2098 200.283 60.1979 200.286 60.1854C200.289 60.1729 200.289 60.1599 200.287 60.1472C200.281 60.1222 200.267 60.1001 200.246 60.0852C200.225 60.0704 200.2 60.0639 200.174 60.0671C199.774 60.1552 199.358 60.1475 198.96 60.0444C198.563 59.9414 198.196 59.746 197.888 59.4742C197.879 59.4649 197.869 59.4574 197.857 59.4523C197.845 59.4472 197.832 59.4446 197.819 59.4446C197.806 59.4446 197.793 59.4472 197.781 59.4523C197.769 59.4574 197.758 59.4649 197.749 59.4742C197.732 59.493 197.722 59.5179 197.722 59.5437C197.722 59.5695 197.732 59.5943 197.749 59.6131C198.021 59.8638 198.341 60.0555 198.691 60.1759C199.04 60.2963 199.411 60.343 199.779 60.3128Z" fill="#263238"/>
<path d="M196.825 55.1585C196.86 55.1567 196.893 55.1459 196.922 55.1272C196.951 55.1084 196.975 55.0824 196.991 55.0516C197.093 54.8294 197.245 54.6343 197.436 54.4821C197.628 54.3299 197.852 54.2249 198.091 54.1757C198.143 54.169 198.19 54.1422 198.222 54.1013C198.254 54.0603 198.268 54.0083 198.262 53.9567C198.26 53.9313 198.252 53.9068 198.24 53.8845C198.227 53.8621 198.211 53.8425 198.191 53.8266C198.171 53.8107 198.148 53.7989 198.124 53.7919C198.099 53.7848 198.074 53.7828 198.049 53.7857C197.747 53.8416 197.463 53.9673 197.219 54.1528C196.975 54.3384 196.778 54.5785 196.644 54.854C196.632 54.8764 196.625 54.9008 196.623 54.926C196.621 54.9512 196.624 54.9765 196.632 55.0005C196.64 55.0244 196.652 55.0465 196.669 55.0654C196.686 55.0843 196.706 55.0996 196.729 55.1104C196.756 55.1346 196.79 55.1511 196.825 55.1585Z" fill="#263238"/>
<path d="M203.198 53.8338C203.236 53.8294 203.272 53.8167 203.305 53.7964C203.345 53.7647 203.371 53.7186 203.378 53.6678C203.385 53.6169 203.372 53.5654 203.342 53.524C203.166 53.2716 202.931 53.0662 202.657 52.9256C202.383 52.785 202.079 52.7135 201.772 52.7174C201.746 52.7188 201.722 52.7251 201.699 52.7361C201.676 52.747 201.656 52.7624 201.639 52.7812C201.622 52.8001 201.609 52.8221 201.6 52.846C201.592 52.8699 201.589 52.8951 201.59 52.9204C201.591 52.9459 201.597 52.971 201.607 52.9942C201.618 53.0173 201.633 53.0381 201.652 53.0551C201.671 53.0721 201.694 53.085 201.718 53.0931C201.742 53.1012 201.768 53.1042 201.793 53.102C202.037 53.1031 202.277 53.1629 202.492 53.2763C202.708 53.3898 202.893 53.5535 203.032 53.7537C203.05 53.781 203.075 53.8029 203.104 53.817C203.133 53.8312 203.165 53.837 203.198 53.8338Z" fill="#263238"/>
<path d="M197.541 51.7613C197.541 51.7613 196.286 51.1951 195.939 52.1405C195.591 53.086 196.088 55.3454 196.088 55.3454L195.784 54.9875C195.784 54.9875 195.372 60.2969 193.07 59.4369C190.768 58.577 186.778 54.0581 191.051 50.5061C191.051 50.5061 191.318 49.1921 194.363 47.9689C197.408 46.7457 201.622 47.9368 202.69 49.8971C203.758 51.8574 203.075 53.2088 203.075 53.2088C202.88 52.774 202.588 52.3901 202.22 52.0871C202.221 52.309 202.167 52.5276 202.062 52.7234C201.958 52.9192 201.807 53.086 201.622 53.2088C201.568 52.7747 201.394 52.3641 201.12 52.023C201.092 52.4131 200.979 52.7924 200.789 53.134C200.132 51.0295 198.583 50.88 198.118 50.9975C197.952 51.0458 197.807 51.1462 197.703 51.2838C197.599 51.4214 197.542 51.5888 197.541 51.7613Z" fill="#263238"/>
<path d="M190.998 59.8002C191.236 60.2448 191.561 60.6376 191.952 60.9558C192.344 61.2739 192.795 61.5112 193.279 61.6536C194.577 62.0222 195.25 60.8578 194.881 59.6185C194.571 58.5075 193.519 56.9745 192.21 57.1455C191.925 57.1909 191.656 57.3062 191.426 57.4811C191.196 57.656 191.013 57.885 190.892 58.1477C190.772 58.4105 190.719 58.6989 190.738 58.9872C190.756 59.2755 190.845 59.5548 190.998 59.8002Z" fill="#263238"/>
<path opacity="0.6" d="M190.998 59.8002C191.236 60.2448 191.561 60.6376 191.952 60.9558C192.344 61.2739 192.795 61.5112 193.279 61.6536C194.577 62.0222 195.25 60.8578 194.881 59.6185C194.571 58.5075 193.519 56.9745 192.21 57.1455C191.925 57.1909 191.656 57.3062 191.426 57.4811C191.196 57.656 191.013 57.885 190.892 58.1477C190.772 58.4105 190.719 58.6989 190.738 58.9872C190.756 59.2755 190.845 59.5548 190.998 59.8002Z" fill="white"/>
<path d="M201.969 72.3792L201.472 74.2807C201.472 74.2807 203.668 86.2081 204.068 92.4843L203.118 94.0867L201.734 92.698C201.734 92.698 201.392 76.5028 200.826 74.3181L199.17 72.8385L200.442 71.7703L201.969 72.3792Z" fill="#263238"/>
<path d="M200.452 71.6045L193.231 68.2234L191.206 70.7071L197.445 75.3382L200.709 72.2401L204.399 74.601L203.812 70.0715L199.571 68.2234L200.452 71.6045Z" fill="#263238"/>
<path opacity="0.9" d="M200.452 71.6045L193.231 68.2234L191.206 70.7071L197.445 75.3382L200.709 72.2401L204.399 74.601L203.812 70.0715L199.571 68.2234L200.452 71.6045Z" fill="white"/>
<path d="M207.284 103.498L195.549 104.134L195.453 102.735L207.172 102.254L207.284 103.498Z" fill="black"/>
<path d="M194.86 102.761L194.988 104.166L189.022 104.492L188.968 103.002L194.86 102.761Z" fill="black"/>
<path d="M207.872 102.222L210.756 102.104L210.916 103.3L207.973 103.461L207.872 102.222Z" fill="black"/>
<path d="M203.561 102.537L203.668 103.669C203.671 103.709 203.666 103.749 203.653 103.787C203.64 103.824 203.62 103.859 203.594 103.889C203.567 103.919 203.535 103.943 203.499 103.961C203.463 103.978 203.424 103.988 203.385 103.99L201.045 104.07C200.969 104.073 200.896 104.046 200.84 103.995C200.784 103.944 200.75 103.873 200.746 103.798L200.655 102.681C200.652 102.641 200.657 102.602 200.67 102.564C200.683 102.526 200.703 102.491 200.729 102.461C200.756 102.432 200.788 102.407 200.824 102.39C200.86 102.373 200.899 102.363 200.938 102.361L203.256 102.27C203.331 102.268 203.404 102.295 203.461 102.344C203.517 102.394 203.553 102.462 203.561 102.537Z" fill="white"/>
<path d="M213.357 105.069L212.337 102.398C211.803 101.239 209.987 102.312 209.987 102.312C209.905 102.355 209.84 102.422 209.8 102.505C209.761 102.588 209.749 102.682 209.768 102.772L211.14 107.905C211.176 108.03 211.245 108.143 211.34 108.232C211.435 108.321 211.552 108.383 211.679 108.411C211.806 108.439 211.938 108.432 212.061 108.391C212.185 108.349 212.295 108.276 212.38 108.177L212.882 107.643C213.189 107.298 213.395 106.876 213.479 106.422C213.563 105.968 213.521 105.5 213.357 105.069Z" fill="#263238"/>
<path opacity="0.6" d="M213.357 105.069L212.337 102.398C211.803 101.239 209.987 102.312 209.987 102.312C209.905 102.355 209.84 102.422 209.8 102.505C209.761 102.588 209.749 102.682 209.768 102.772L211.14 107.905C211.176 108.03 211.245 108.143 211.34 108.232C211.435 108.321 211.552 108.383 211.679 108.411C211.806 108.439 211.938 108.432 212.061 108.391C212.185 108.349 212.295 108.276 212.38 108.177L212.882 107.643C213.189 107.298 213.395 106.876 213.479 106.422C213.563 105.968 213.521 105.5 213.357 105.069Z" fill="white"/>
<path d="M184.065 125.206H183.824C182.801 125.199 181.787 125.006 180.833 124.634C179.957 124.26 179.482 123.747 179.498 123.187C179.498 122.092 181.415 121.312 183.91 121.36C184.934 121.365 185.947 121.559 186.901 121.931C187.777 122.305 188.252 122.818 188.242 123.379C188.215 124.436 186.442 125.206 184.065 125.206ZM183.675 121.894C181.538 121.894 180.043 122.567 180.032 123.197C180.032 123.518 180.401 123.87 181.047 124.143C181.936 124.494 182.884 124.675 183.84 124.677C186.094 124.72 187.692 124.025 187.708 123.373C187.708 123.053 187.334 122.7 186.693 122.428C185.803 122.077 184.856 121.895 183.899 121.894H183.675Z" fill="#263238"/>
<path d="M173.526 123.448L173.211 137.977C173.208 138.091 173.228 138.203 173.269 138.309C173.31 138.415 173.371 138.511 173.45 138.593C173.528 138.675 173.622 138.741 173.726 138.786C173.83 138.832 173.942 138.856 174.055 138.858L195.244 139.318C195.474 139.322 195.695 139.236 195.861 139.078C196.027 138.92 196.124 138.703 196.131 138.474L196.446 123.951C196.451 123.721 196.364 123.498 196.205 123.332C196.045 123.166 195.827 123.069 195.597 123.064L174.408 122.605C174.294 122.602 174.181 122.621 174.076 122.662C173.97 122.703 173.873 122.765 173.791 122.843C173.709 122.922 173.644 123.015 173.598 123.119C173.553 123.223 173.528 123.335 173.526 123.448Z" fill="#263238"/>
<path opacity="0.1" d="M173.526 123.448L173.211 137.977C173.208 138.091 173.228 138.203 173.269 138.309C173.31 138.415 173.371 138.511 173.45 138.593C173.528 138.675 173.622 138.741 173.726 138.786C173.83 138.832 173.942 138.856 174.055 138.858L195.244 139.318C195.474 139.322 195.695 139.236 195.861 139.078C196.027 138.92 196.124 138.703 196.131 138.474L196.446 123.951C196.451 123.721 196.364 123.498 196.205 123.332C196.045 123.166 195.827 123.069 195.597 123.064L174.408 122.605C174.294 122.602 174.181 122.621 174.076 122.662C173.97 122.703 173.873 122.765 173.791 122.843C173.709 122.922 173.644 123.015 173.598 123.119C173.553 123.223 173.528 123.335 173.526 123.448Z" fill="white"/>
<path opacity="0.2" d="M194.363 123.903L194.048 138.426C194.043 138.655 194.13 138.877 194.288 139.043C194.446 139.209 194.663 139.306 194.892 139.313H195.244C195.473 139.317 195.695 139.231 195.861 139.073C196.027 138.915 196.124 138.698 196.131 138.469L196.446 123.945C196.45 123.715 196.363 123.493 196.204 123.327C196.045 123.161 195.827 123.064 195.597 123.059H195.244C195.131 123.056 195.018 123.075 194.912 123.116C194.807 123.157 194.71 123.219 194.628 123.297C194.546 123.376 194.48 123.47 194.435 123.573C194.389 123.677 194.365 123.789 194.363 123.903Z" fill="white"/>
<path d="M195.015 123.064C194.795 123.071 194.586 123.163 194.431 123.32C194.277 123.477 194.189 123.688 194.187 123.908L194.037 130.644C194.036 130.734 194.017 130.823 193.981 130.906C193.945 130.988 193.893 131.063 193.828 131.126C193.763 131.188 193.686 131.237 193.602 131.27C193.517 131.303 193.428 131.319 193.338 131.317L173.873 130.895C173.692 130.889 173.52 130.813 173.394 130.682C173.268 130.551 173.199 130.376 173.2 130.195L173.35 123.438C173.352 123.325 173.376 123.214 173.422 123.111C173.467 123.008 173.532 122.914 173.613 122.836C173.695 122.758 173.791 122.697 173.896 122.657C174.001 122.616 174.113 122.597 174.226 122.599L195.421 123.059L195.015 123.064Z" fill="#263238"/>
<path opacity="0.2" d="M195.015 123.064C194.795 123.071 194.586 123.163 194.431 123.32C194.277 123.477 194.189 123.688 194.187 123.908L194.037 130.644C194.036 130.734 194.017 130.823 193.981 130.906C193.945 130.988 193.893 131.063 193.828 131.126C193.763 131.188 193.686 131.237 193.602 131.27C193.517 131.303 193.428 131.319 193.338 131.317L173.873 130.895C173.692 130.889 173.52 130.813 173.394 130.682C173.268 130.551 173.199 130.376 173.2 130.195L173.35 123.438C173.352 123.325 173.376 123.214 173.422 123.111C173.467 123.008 173.532 122.914 173.613 122.836C173.695 122.758 173.791 122.697 173.896 122.657C174.001 122.616 174.113 122.597 174.226 122.599L195.421 123.059L195.015 123.064Z" fill="white"/>
<path d="M183.983 134.379L182.381 134.344C182.347 134.344 182.314 134.336 182.283 134.323C182.252 134.309 182.225 134.29 182.201 134.265C182.178 134.241 182.16 134.212 182.147 134.181C182.135 134.15 182.129 134.116 182.13 134.083L182.214 130.184L184.302 130.229L184.218 134.128C184.217 134.191 184.192 134.252 184.149 134.299C184.105 134.345 184.046 134.374 183.983 134.379Z" fill="#263238"/>
<path d="M184.15 133.378L182.329 133.336C182.188 133.334 182.053 133.276 181.955 133.175C181.859 133.073 181.807 132.937 181.811 132.796V131.925C181.811 131.784 181.867 131.648 181.967 131.548C182.067 131.448 182.203 131.391 182.345 131.391L184.166 131.429C184.306 131.434 184.438 131.493 184.535 131.594C184.633 131.696 184.687 131.832 184.684 131.974V132.844C184.684 132.986 184.628 133.122 184.528 133.222C184.428 133.322 184.292 133.378 184.15 133.378ZM182.345 131.674C182.277 131.676 182.212 131.703 182.163 131.751C182.114 131.798 182.086 131.863 182.083 131.931V132.802C182.081 132.836 182.085 132.87 182.097 132.903C182.109 132.935 182.128 132.964 182.152 132.988C182.176 133.014 182.205 133.034 182.237 133.048C182.27 133.062 182.304 133.069 182.339 133.069L184.161 133.111C184.196 133.114 184.23 133.109 184.263 133.097C184.296 133.085 184.326 133.066 184.351 133.042C184.376 133.018 184.396 132.989 184.409 132.957C184.422 132.924 184.429 132.89 184.428 132.855V131.979C184.427 131.909 184.401 131.843 184.353 131.792C184.304 131.744 184.24 131.716 184.172 131.712L182.35 131.674H182.345Z" fill="white"/>
<path d="M181.971 116.846L181.517 120.943L185.833 119.437C185.833 119.437 186.025 115.751 184.107 115.751L181.971 116.846Z" fill="#263238"/>
<path d="M182.388 122.786L186.014 122.599L185.843 119.437L181.528 120.943L182.388 122.786Z" fill="#263238"/>
<g opacity="0.6">
<path d="M181.971 116.846L181.517 120.943L185.833 119.437C185.833 119.437 186.025 115.751 184.107 115.751L181.971 116.846Z" fill="white"/>
<path d="M182.388 122.786L186.014 122.599L185.843 119.437L181.528 120.943L182.388 122.786Z" fill="white"/>
</g>
<path d="M185.747 71.8076C184.182 73.6557 180.101 88.991 179.535 93.5793C178.969 98.1675 181.672 117.183 181.672 117.183L185.769 116.553C185.769 116.553 184.487 96.6986 185.053 95.39C185.619 94.0813 189.171 80.0067 189.171 80.0067C189.171 80.0067 189.545 77.2933 188.989 75.4024C188.434 73.5115 185.747 71.8076 185.747 71.8076Z" fill="#263238"/>
<path opacity="0.8" d="M185.747 71.8076C184.182 73.6557 180.101 88.991 179.535 93.5793C178.969 98.1675 181.672 117.183 181.672 117.183L185.769 116.553C185.769 116.553 184.487 96.6986 185.053 95.39C185.619 94.0813 189.171 80.0067 189.171 80.0067C189.171 80.0067 189.545 77.2933 188.989 75.4024C188.434 73.5115 185.747 71.8076 185.747 71.8076Z" fill="white"/>
<path d="M142.957 25.6523H126.217L85.0348 193.539H184.14L142.957 25.6523Z" fill="#1DA1FF"/>
<path opacity="0.7" d="M142.957 25.6523H126.217L85.0348 193.539H184.14L142.957 25.6523Z" fill="white"/>
<path opacity="0.2" d="M141.852 25.6523H127.323L91.5887 193.539H177.591L141.852 25.6523Z" fill="white"/>
<path d="M226.46 22.6078H42.405C42.1925 22.6078 41.9887 22.5234 41.8384 22.3731C41.6882 22.2229 41.6038 22.0191 41.6038 21.8066C41.6038 21.5941 41.6882 21.3903 41.8384 21.24C41.9887 21.0898 42.1925 21.0054 42.405 21.0054H226.46C226.672 21.0054 226.876 21.0898 227.026 21.24C227.176 21.3903 227.261 21.5941 227.261 21.8066C227.261 22.0191 227.176 22.2229 227.026 22.3731C226.876 22.5234 226.672 22.6078 226.46 22.6078Z" fill="#263238"/>
<path d="M136.435 15.0391H123.103V27.5059H136.435V15.0391Z" fill="black"/>
<path d="M143.561 11.0383H125.186V13.9921H143.561V11.0383Z" fill="#263238"/>
<path d="M123.915 30.668H131.911L129.358 27.5005H124.374L123.915 30.668Z" fill="black"/>
<path d="M145.404 12.6619V30.6678H129.694L128.76 28.8731H124.78L124.187 30.6678H123.915V12.6619H145.404Z" fill="#263238"/>
<path opacity="0.1" d="M145.404 12.6619H130.063V30.6678H145.404V12.6619Z" fill="white"/>
<path opacity="0.1" d="M128.279 16.0645C128.279 17.3518 127.537 18.3987 126.629 18.3987C126.552 18.4066 126.475 18.4066 126.399 18.3987C125.598 18.2492 124.973 17.2717 124.973 16.0912C124.973 14.9108 125.598 13.9547 126.399 13.7837C126.475 13.7733 126.552 13.7733 126.629 13.7837C127.537 13.7303 128.279 14.7986 128.279 16.0645Z" fill="white"/>
<path opacity="0.1" d="M127.809 16.0646C127.809 17.245 127.195 18.2011 126.399 18.3721C125.598 18.2225 124.973 17.245 124.973 16.0646C124.973 14.8841 125.598 13.928 126.399 13.7571C127.195 13.912 127.809 14.8841 127.809 16.0646Z" fill="white"/>
<path opacity="0.1" d="M126.789 16.0646C126.789 16.6308 126.516 17.0901 126.18 17.0901C125.843 17.0901 125.571 16.6308 125.571 16.0646C125.571 15.4984 125.843 15.0337 126.18 15.0337C126.516 15.0337 126.789 15.4984 126.789 16.0646Z" fill="white"/>
<path d="M146.055 15.0391H132.723V27.5059H146.055V15.0391Z" fill="#263238"/>
<path opacity="0.1" d="M146.055 15.29H133.823V27.2548H146.055V15.29Z" fill="white"/>
<path d="M144.885 26.0799V16.46H134.998V26.0799H144.885Z" fill="#1DA1FF"/>
<path d="M139.619 24.4985C139.529 24.4977 139.441 24.4744 139.362 24.4305C139.284 24.3866 139.218 24.3236 139.17 24.2474L136.66 20.7274C136.559 20.5796 136.511 20.4023 136.524 20.224C136.537 20.0457 136.609 19.8768 136.729 19.7446C136.785 19.6876 136.853 19.6438 136.928 19.6165C137.003 19.5891 137.083 19.5789 137.162 19.5866C137.242 19.5943 137.318 19.6197 137.387 19.6609C137.455 19.7021 137.513 19.7581 137.557 19.8247L139.619 22.7144L143.027 17.9392C143.07 17.8716 143.129 17.8148 143.198 17.773C143.266 17.7312 143.344 17.7055 143.424 17.6978C143.504 17.6901 143.585 17.7006 143.66 17.7285C143.736 17.7564 143.804 17.8011 143.86 17.8591C143.981 17.9923 144.053 18.1625 144.064 18.342C144.076 18.5214 144.026 18.6995 143.924 18.8472L140.067 24.2474C140.02 24.3236 139.954 24.3866 139.875 24.4305C139.797 24.4744 139.709 24.4977 139.619 24.4985Z" fill="white"/>
<path d="M200.57 15.0391H187.238V27.5059H200.57V15.0391Z" fill="black"/>
<path d="M207.695 11.0383H189.321V13.9921H207.695V11.0383Z" fill="#263238"/>
<path d="M188.049 30.668H196.046L193.498 27.5005H188.509L188.049 30.668Z" fill="black"/>
<path d="M209.543 12.6619V30.6678H193.829L192.894 28.8731H188.915L188.322 30.6678H188.049V12.6619H209.543Z" fill="#263238"/>
<path opacity="0.1" d="M209.538 12.6619H194.197V30.6678H209.538V12.6619Z" fill="white"/>
<path opacity="0.1" d="M192.413 16.0645C192.413 17.3518 191.671 18.3987 190.763 18.3987C190.687 18.4066 190.61 18.4066 190.533 18.3987C189.732 18.2492 189.112 17.2717 189.112 16.0912C189.112 14.9108 189.732 13.9547 190.533 13.7837C190.609 13.7733 190.687 13.7733 190.763 13.7837C191.671 13.7303 192.413 14.7986 192.413 16.0645Z" fill="white"/>
<path opacity="0.1" d="M191.949 16.0646C191.949 17.245 191.329 18.2011 190.533 18.3721C189.732 18.2225 189.112 17.245 189.112 16.0646C189.112 14.8841 189.732 13.928 190.533 13.7571C191.329 13.912 191.949 14.8841 191.949 16.0646Z" fill="white"/>
<path opacity="0.1" d="M190.929 16.0646C190.929 16.6308 190.656 17.0901 190.32 17.0901C189.983 17.0901 189.711 16.6308 189.711 16.0646C189.711 15.4984 189.983 15.0337 190.32 15.0337C190.656 15.0337 190.929 15.4984 190.929 16.0646Z" fill="white"/>
<path d="M210.19 15.0391H196.858V27.5059H210.19V15.0391Z" fill="#263238"/>
<path opacity="0.1" d="M210.19 15.29H197.958V27.2548H210.19V15.29Z" fill="white"/>
<path d="M209.02 26.0799V16.46H199.133V26.0799H209.02Z" fill="#1DA1FF"/>
<path d="M204.939 21.2723L207.503 18.4894C207.619 18.3593 207.683 18.191 207.683 18.0167C207.683 17.8424 207.619 17.6741 207.503 17.544C207.448 17.4825 207.381 17.4333 207.306 17.3995C207.231 17.3658 207.15 17.3484 207.068 17.3484C206.985 17.3484 206.904 17.3658 206.829 17.3995C206.754 17.4333 206.687 17.4825 206.632 17.544L204.068 20.3269L201.504 17.544C201.45 17.4825 201.383 17.4333 201.308 17.3995C201.233 17.3658 201.151 17.3484 201.069 17.3484C200.987 17.3484 200.906 17.3658 200.831 17.3995C200.756 17.4333 200.688 17.4825 200.634 17.544C200.518 17.6741 200.454 17.8424 200.454 18.0167C200.454 18.191 200.518 18.3593 200.634 18.4894L203.198 21.2723L200.634 24.0498C200.518 24.18 200.454 24.3482 200.454 24.5226C200.454 24.6969 200.518 24.8651 200.634 24.9953C200.689 25.0572 200.756 25.1069 200.832 25.1409C200.907 25.175 200.989 25.1927 201.072 25.1929C201.154 25.1926 201.235 25.1748 201.309 25.1408C201.384 25.1067 201.451 25.0571 201.504 24.9953L204.068 22.2124L206.632 24.9953C206.687 25.0572 206.755 25.1069 206.83 25.1409C206.906 25.175 206.987 25.1927 207.07 25.1929C207.152 25.1926 207.233 25.1748 207.308 25.1408C207.383 25.1067 207.449 25.0571 207.503 24.9953C207.619 24.8651 207.683 24.6969 207.683 24.5226C207.683 24.3482 207.619 24.18 207.503 24.0498L204.939 21.2723Z" fill="white"/>
<path d="M72.3009 15.0391H58.9688V27.5059H72.3009V15.0391Z" fill="black"/>
<path d="M79.4264 11.0383H61.0519V13.9921H79.4264V11.0383Z" fill="#263238"/>
<path d="M59.7753 30.668H67.7767L65.2235 27.5005H60.24L59.7753 30.668Z" fill="black"/>
<path d="M81.2691 12.6619V30.6678H65.5547L64.6253 28.8731H60.6459L60.053 30.6678H59.7753V12.6619H81.2691Z" fill="#263238"/>
<path opacity="0.1" d="M81.2692 12.6619H65.9286V30.6678H81.2692V12.6619Z" fill="white"/>
<path opacity="0.1" d="M64.1446 16.0645C64.1446 17.3518 63.4021 18.3987 62.4941 18.3987C62.4178 18.4069 62.3408 18.4069 62.2644 18.3987C61.4579 18.2491 60.8383 17.2716 60.8383 16.0912C60.8383 14.9107 61.4579 13.9546 62.2644 13.7837C62.3406 13.7729 62.4179 13.7729 62.4941 13.7837C63.3915 13.7303 64.1446 14.7986 64.1446 16.0645Z" fill="white"/>
<path opacity="0.1" d="M63.6746 16.0646C63.6746 17.245 63.0603 18.2011 62.2644 18.3721C61.4579 18.2225 60.8383 17.245 60.8383 16.0646C60.8383 14.8841 61.4579 13.928 62.2644 13.7571C63.0603 13.912 63.6746 14.8841 63.6746 16.0646Z" fill="white"/>
<path opacity="0.1" d="M62.6542 16.0646C62.6542 16.6308 62.3818 17.0901 62.0453 17.0901C61.7088 17.0901 61.4364 16.6308 61.4364 16.0646C61.4364 15.4984 61.7088 15.0337 62.0453 15.0337C62.3818 15.0337 62.6542 15.4984 62.6542 16.0646Z" fill="white"/>
<path d="M81.9208 15.0391H68.5886V27.5059H81.9208V15.0391Z" fill="#263238"/>
<path opacity="0.1" d="M81.9208 15.29H69.689V27.2548H81.9208V15.29Z" fill="white"/>
<path d="M80.7457 26.0799V16.46H70.8588V26.0799H80.7457Z" fill="#1DA1FF"/>
<path d="M76.6755 21.2723L79.2394 18.4894C79.3554 18.3593 79.4195 18.191 79.4195 18.0167C79.4195 17.8424 79.3554 17.6741 79.2394 17.544C79.1847 17.4825 79.1177 17.4333 79.0427 17.3995C78.9676 17.3658 78.8863 17.3484 78.804 17.3484C78.7218 17.3484 78.6404 17.3658 78.5654 17.3995C78.4904 17.4333 78.4233 17.4825 78.3687 17.544L75.8048 20.3269L73.2409 17.544C73.1863 17.4825 73.1193 17.4333 73.0442 17.3995C72.9692 17.3658 72.8879 17.3484 72.8056 17.3484C72.7234 17.3484 72.642 17.3658 72.567 17.3995C72.492 17.4333 72.4249 17.4825 72.3703 17.544C72.2543 17.6741 72.1902 17.8424 72.1902 18.0167C72.1902 18.191 72.2543 18.3593 72.3703 18.4894L74.9342 21.2723L72.3703 24.0498C72.2543 24.18 72.1902 24.3482 72.1902 24.5226C72.1902 24.6969 72.2543 24.8651 72.3703 24.9953C72.4244 25.0576 72.4913 25.1075 72.5664 25.1417C72.6415 25.1759 72.7231 25.1936 72.8056 25.1936C72.8881 25.1936 72.9697 25.1759 73.0448 25.1417C73.1199 25.1075 73.1868 25.0576 73.2409 24.9953L75.8048 22.2124L78.3687 24.9953C78.4226 25.0571 78.4891 25.1067 78.5637 25.1408C78.6383 25.1748 78.7193 25.1926 78.8014 25.1929C78.8842 25.1927 78.966 25.175 79.0415 25.1409C79.117 25.1069 79.1844 25.0572 79.2394 24.9953C79.3554 24.8651 79.4195 24.6969 79.4195 24.5226C79.4195 24.3482 79.3554 24.18 79.2394 24.0498L76.6755 21.2723Z" fill="white"/>
<path d="M123.947 186.963L124.364 187.545L125.197 187.187L125.731 189.735L129.24 194.601C129.24 194.601 130.581 194.815 129.523 192.048C129.474 191.913 129.438 191.773 129.417 191.631C129.101 189.975 129.791 186.824 129.791 186.824L127.862 184.153C127.683 184.163 127.505 184.182 127.328 184.212C126.511 184.324 124.914 184.709 123.947 186.963Z" fill="#1DA1FF"/>
<path opacity="0.2" d="M123.947 186.963L124.364 187.545L125.197 187.187L125.731 189.735L129.24 194.601C129.24 194.601 130.581 194.815 129.523 192.048C129.474 191.913 129.438 191.773 129.417 191.631C129.101 189.975 129.791 186.824 129.791 186.824L127.862 184.153C127.683 184.163 127.505 184.182 127.328 184.212C126.511 184.324 124.914 184.709 123.947 186.963Z" fill="black"/>
<path d="M127.307 184.191C127.953 184.261 127.387 187.113 127.649 188.71C127.878 190.142 128.503 191.488 129.411 191.626C129.096 189.971 130.223 186.2 130.223 186.2L128.674 184.063C128.674 184.063 127.649 184.122 127.307 184.191Z" fill="#EBB376"/>
<path opacity="0.2" d="M127.307 184.191C127.953 184.261 127.387 187.113 127.649 188.71C127.878 190.142 128.503 191.488 129.411 191.626C129.096 189.971 130.223 186.2 130.223 186.2L128.674 184.063C128.674 184.063 127.649 184.122 127.307 184.191Z" fill="black"/>
<path d="M129.326 194.42H130.042L130.239 193.539L132.611 194.607H138.609C138.609 194.607 139.565 193.645 136.708 192.882C136.567 192.845 136.431 192.793 136.302 192.727C134.779 192.011 132.611 189.597 132.611 189.597H129.315C129.213 189.749 129.122 189.908 129.043 190.072C128.685 190.799 128.065 192.321 129.326 194.42Z" fill="#1DA1FF"/>
<path d="M129.043 190.072C129.481 189.586 131.457 191.717 132.91 192.443C134.203 193.084 135.655 193.373 136.302 192.716C134.779 192 132.381 188.881 132.381 188.881H129.71C129.71 188.881 129.198 189.762 129.043 190.072Z" fill="#EBB376"/>
<path d="M155.376 82.4905L153.944 78.7087L158.415 79.088C158.415 79.088 159.484 82.5385 157.683 83.0139L155.376 82.4905Z" fill="#EBB376"/>
<path d="M154.687 74.7773L158.415 76.4065V79.0879L153.95 78.7086L154.687 74.7773Z" fill="#EBB376"/>
<path d="M158.218 82.5651C158.218 82.5651 158.025 99.4119 154.286 99.4119C152.208 99.4119 149.858 98.0605 147.877 96.5329C146.197 95.2273 144.639 93.774 143.219 92.1903V92.1316L141.91 84.3117C145.59 84.2209 152.016 92.655 152.016 92.655L155.114 81.9722L158.218 82.5651Z" fill="#1DA1FF"/>
<path opacity="0.2" d="M147.86 96.5222C146.181 95.2166 144.623 93.7633 143.203 92.1797V92.1209L144.399 89.4502C146.406 91.2851 147.642 93.8121 147.86 96.5222Z" fill="black"/>
<path d="M126.783 65.6276C126.783 65.6276 127.953 63.6085 131.302 63.2613C134.651 62.9141 139.095 64.7089 139.774 69.8153C140.452 74.9217 141.91 77.7312 141.91 77.7312C141.91 77.7312 131.121 80.5515 128.087 79.5366C125.053 78.5218 120.363 67.0965 126.783 65.6276Z" fill="#263238"/>
<path d="M147.471 155.492C145.868 158.456 144.239 161.645 142.663 164.839C140.607 169.054 138.673 173.279 137.017 177.06C135.271 181.045 133.855 184.538 132.969 186.947C132.13 187.043 129.603 185.537 128.872 184.17C130.166 176.39 132.132 168.738 134.747 161.298C136.382 156.832 138.385 152.436 140.788 148.884C130.96 120.927 133.369 110.426 133.369 110.426L144.757 109.919C144.757 109.919 146.477 120.329 147.855 131.007C148.576 136.604 149.196 142.277 149.425 146.561V146.604C149.611 149.69 148.934 152.768 147.471 155.492Z" fill="#263238"/>
<path opacity="0.2" d="M138.086 140.568C136.644 135.814 135.602 131.701 134.881 128.17C135.613 125.414 136.644 123.048 138.048 121.627C138.038 121.627 140.062 129.319 138.086 140.568Z" fill="black"/>
<path opacity="0.2" d="M137.033 177.06C135.287 181.045 133.871 184.538 132.985 186.947C132.146 187.043 129.62 185.537 128.888 184.17C130.182 176.39 132.148 168.738 134.763 161.298C135.613 165.929 136.569 171.777 137.033 177.06Z" fill="black"/>
<path d="M140.447 108.674C140.447 108.674 137.135 134.313 135.234 146.667C133.236 159.631 132.985 180.425 133.482 188.902C132.755 189.324 130.111 189.837 128.674 189.388C128.674 189.388 121.917 163.172 126.404 147.944C122.318 117.952 128.236 110.607 128.236 110.607L140.447 108.674Z" fill="#263238"/>
<path opacity="0.7" d="M139.341 92.527C136.01 89.5226 132.315 86.9475 128.343 84.8621C128.706 84.8194 129.08 84.782 129.449 84.7499C131.971 84.4855 134.51 84.3998 137.044 84.4935C137.669 84.5309 138.316 84.5843 138.951 84.6378C140.522 88.2379 139.341 92.527 139.341 92.527Z" fill="white"/>
<path d="M128.343 108.674C128.001 104.786 126.607 97.6548 124.209 90.1661C123.429 87.7304 124.743 84.9796 124.743 84.9796C124.743 84.9796 128.012 84.8995 128.338 84.8621C128.663 84.8247 129.075 84.782 129.443 84.7499C131.966 84.4855 134.504 84.3998 137.039 84.4935C137.664 84.5309 138.31 84.5843 138.946 84.6378C139.149 84.6378 141.445 84.6805 141.643 84.7019C141.643 84.7019 144.821 88.334 145.014 91.2771C145.253 93.5406 145.34 95.8176 145.275 98.0928C145.275 100.764 145.067 104.289 144.891 108.044L128.343 108.674Z" fill="#1DA1FF"/>
<path opacity="0.8" d="M128.343 108.674C128.001 104.786 126.607 97.6548 124.209 90.1661C123.429 87.7304 124.743 84.9796 124.743 84.9796C124.743 84.9796 128.012 84.8995 128.338 84.8621C128.663 84.8247 129.075 84.782 129.443 84.7499C131.966 84.4855 134.504 84.3998 137.039 84.4935C137.664 84.5309 138.31 84.5843 138.946 84.6378C139.149 84.6378 141.445 84.6805 141.643 84.7019C141.643 84.7019 144.821 88.334 145.014 91.2771C145.253 93.5406 145.34 95.8176 145.275 98.0928C145.275 100.764 145.067 104.289 144.891 108.044L128.343 108.674Z" fill="white"/>
<path d="M128.343 108.674L144.901 107.557C144.901 107.557 145.398 112.536 145.286 112.466C145.174 112.397 127.563 113.08 127.563 113.08L128.343 108.674Z" fill="#263238"/>
<path d="M128.493 108.952L144.896 108.044V109.598L128.343 110.48L128.493 108.952Z" fill="black"/>
<path d="M137.728 110.234C137.615 110.236 137.505 110.194 137.422 110.117C137.338 110.041 137.287 109.935 137.279 109.823L137.21 108.909C137.204 108.85 137.211 108.791 137.229 108.735C137.248 108.679 137.277 108.628 137.316 108.583C137.354 108.539 137.401 108.502 137.453 108.475C137.505 108.449 137.562 108.433 137.621 108.428L139.416 108.29C139.478 108.284 139.54 108.292 139.599 108.312C139.658 108.332 139.712 108.365 139.758 108.407C139.803 108.449 139.839 108.501 139.864 108.558C139.889 108.615 139.902 108.676 139.902 108.738V109.694C139.902 109.81 139.858 109.921 139.778 110.004C139.698 110.088 139.59 110.138 139.474 110.143L137.749 110.234H137.728ZM137.546 109.801C137.547 109.825 137.552 109.849 137.563 109.87C137.573 109.892 137.587 109.911 137.606 109.927C137.624 109.942 137.645 109.954 137.668 109.961C137.691 109.968 137.715 109.97 137.738 109.967L139.464 109.876C139.51 109.873 139.554 109.853 139.585 109.819C139.617 109.785 139.635 109.741 139.635 109.694V108.738C139.635 108.713 139.63 108.688 139.62 108.665C139.61 108.642 139.595 108.622 139.576 108.605C139.557 108.588 139.535 108.575 139.511 108.566C139.488 108.558 139.462 108.555 139.437 108.557L137.642 108.696C137.619 108.697 137.595 108.704 137.574 108.715C137.553 108.726 137.535 108.741 137.519 108.76C137.504 108.777 137.492 108.797 137.484 108.819C137.477 108.841 137.474 108.865 137.477 108.888L137.546 109.801Z" fill="white"/>
<path d="M129.689 120.062L123.963 119.025L127.296 106.703C127.296 106.703 126.447 103.642 125.501 100.133C125.047 98.4289 124.572 96.6182 124.166 95.0051C123.714 93.4001 123.358 91.7699 123.098 90.123C122.991 88.1573 124.743 84.9792 124.743 84.9792L128.877 84.3115C128.877 84.3115 132.648 88.4725 132.894 96.4472C133.14 104.422 129.689 120.062 129.689 120.062Z" fill="#1DA1FF"/>
<path d="M138.331 84.3117C138.331 84.3117 141.926 90.5719 142.754 95.1976C143.582 99.8232 145.863 119.49 145.863 119.49L147.102 118.871L145.377 107.12C145.377 107.12 145.996 93.5097 145.516 90.7161C145.035 87.9225 141.905 84.3064 141.905 84.3064L138.331 84.3117Z" fill="#1DA1FF"/>
<path d="M136.569 84.0125L136.815 83.7935C136.815 83.7935 140.308 84.2368 143.513 88.2375L142.268 89.45L144.405 91.1593L143.395 99.4118C143.395 99.4118 140.158 88.4138 138.759 85.7751C138.117 85.0857 137.38 84.492 136.569 84.0125Z" fill="#1DA1FF"/>
<path opacity="0.2" d="M136.569 84.0128L136.815 83.8098C136.815 83.8098 140.308 84.2371 143.513 88.2379L142.268 89.4504L144.405 91.1596L143.395 99.4121C143.395 99.4121 140.158 88.4141 138.759 85.7755C138.117 85.086 137.38 84.4924 136.569 84.0128Z" fill="black"/>
<path d="M129.694 84.3119C129.694 84.3119 133.695 88.7292 132.803 100.336L128.888 91.9929L130.303 89.7174L126.992 86.6087C126.992 86.6087 128.728 83.313 129.956 83.6389L129.694 84.3119Z" fill="#1DA1FF"/>
<path opacity="0.2" d="M129.694 84.3119C129.694 84.3119 133.695 88.7292 132.803 100.336L128.888 91.9929L130.303 89.7174L126.992 86.6087C126.992 86.6087 128.728 83.313 129.956 83.6389L129.694 84.3119Z" fill="black"/>
<path d="M138.022 85.5671L137.103 91.0634L129.871 84.7391C131.398 83.0513 130.437 78.6072 129.689 76.1929L131.74 77.7259L134.785 80.0066C134.729 80.6356 134.779 81.2694 134.934 81.8815C135.164 82.8483 135.575 83.7617 136.035 83.954L138.022 85.5671Z" fill="#EBB376"/>
<path opacity="0.2" d="M134.934 81.8707C133.716 81.5983 132.125 80.3377 131.868 79.0985C131.772 78.6439 131.729 78.1796 131.74 77.7151L134.785 79.9959C134.729 80.6248 134.779 81.2586 134.934 81.8707Z" fill="black"/>
<path d="M130.228 83.3503C130.228 83.3503 133.321 85.738 136.953 90.7803C136.953 90.7803 137.279 85.7486 136.035 83.9432L136.291 83.6334C138.193 84.4653 139.849 85.7733 141.098 87.4312L138.705 86.6727L137.065 91.1061L132.13 87.0306L128.808 87.6075C128.808 87.6075 128.952 84.3332 130.228 83.3503Z" fill="#1DA1FF"/>
<path opacity="0.7" d="M130.228 83.3503C130.228 83.3503 133.321 85.738 136.953 90.7803C136.953 90.7803 137.279 85.7486 136.035 83.9432L136.291 83.6334C138.193 84.4653 139.849 85.7733 141.098 87.4312L138.705 86.6727L137.065 91.1061L132.13 87.0306L128.808 87.6075C128.808 87.6075 128.952 84.3332 130.228 83.3503Z" fill="white"/>
<path d="M127.44 71.3536C128.316 75.2689 128.599 76.9461 130.918 78.7621C134.4 81.4916 139.005 79.8304 139.309 75.787C139.587 72.1548 138.107 66.354 134 65.1896C133.125 64.9103 132.192 64.8699 131.296 65.0726C130.401 65.2753 129.576 65.7137 128.907 66.3424C128.238 66.9711 127.749 67.7672 127.491 68.6483C127.233 69.5294 127.216 70.4634 127.44 71.3536Z" fill="#EBB376"/>
<path d="M132.499 71.8343C132.557 72.1708 132.782 72.4218 132.99 72.3951C133.198 72.3684 133.332 72.0853 133.273 71.7542C133.214 71.423 132.99 71.172 132.776 71.22C132.563 71.2681 132.44 71.5031 132.499 71.8343Z" fill="#263238"/>
<path d="M136.638 71.2627C136.697 71.5939 136.916 71.8449 137.13 71.7968C137.343 71.7488 137.466 71.487 137.408 71.1559C137.349 70.8247 137.13 70.5737 136.916 70.595C136.702 70.6164 136.569 70.9262 136.638 71.2627Z" fill="#263238"/>
<path d="M136.825 70.6431L137.568 70.3333C137.568 70.3333 137.274 70.9956 136.825 70.6431Z" fill="#263238"/>
<path d="M135.5 72.1279C135.926 72.8548 136.443 73.5243 137.039 74.1203C136.891 74.2605 136.713 74.3647 136.519 74.4249C136.324 74.4852 136.118 74.4997 135.917 74.4675L135.5 72.1279Z" fill="#D58745"/>
<path d="M131.516 69.815C131.541 69.815 131.567 69.8093 131.59 69.7982C131.613 69.7871 131.633 69.7709 131.649 69.7509C131.799 69.5644 131.992 69.418 132.212 69.3247C132.432 69.2315 132.672 69.1944 132.91 69.2168C132.935 69.2213 132.96 69.2207 132.984 69.215C133.009 69.2093 133.032 69.1985 133.052 69.1835C133.072 69.1684 133.089 69.1494 133.101 69.1275C133.113 69.1057 133.121 69.0815 133.124 69.0565C133.127 69.004 133.111 68.952 133.078 68.9106C133.046 68.8692 132.999 68.8413 132.947 68.8322C132.647 68.7986 132.342 68.8412 132.062 68.956C131.782 69.0708 131.536 69.2541 131.345 69.4892C131.329 69.5091 131.317 69.532 131.31 69.5565C131.303 69.581 131.301 69.6067 131.304 69.6321C131.307 69.6575 131.315 69.682 131.327 69.7042C131.34 69.7264 131.357 69.7459 131.377 69.7616C131.415 69.7959 131.465 69.8149 131.516 69.815Z" fill="#263238"/>
<path d="M137.947 68.8911C137.972 68.8936 137.997 68.8911 138.021 68.8837C138.044 68.8764 138.067 68.8644 138.086 68.8483C138.104 68.8305 138.118 68.8092 138.128 68.7859C138.137 68.7625 138.142 68.7374 138.142 68.7121C138.142 68.6868 138.137 68.6618 138.128 68.6384C138.118 68.615 138.104 68.5938 138.086 68.5759C137.892 68.3247 137.642 68.1218 137.357 67.9828C137.071 67.8438 136.758 67.7726 136.44 67.7747C136.416 67.7765 136.392 67.7836 136.37 67.7953C136.348 67.8071 136.329 67.8234 136.314 67.843C136.299 67.8627 136.288 67.8853 136.282 67.9094C136.276 67.9336 136.276 67.9586 136.28 67.983C136.287 68.0354 136.313 68.0833 136.354 68.117C136.395 68.1508 136.447 68.1678 136.499 68.1646C136.75 68.1679 136.997 68.2283 137.221 68.3412C137.445 68.4541 137.64 68.6166 137.792 68.8163C137.812 68.8383 137.835 68.8563 137.862 68.8691C137.888 68.8819 137.917 68.8894 137.947 68.8911Z" fill="#263238"/>
<path d="M132.686 71.2199L133.428 70.9048C133.428 70.9048 133.14 71.5725 132.686 71.2199Z" fill="#263238"/>
<path d="M129.449 73.6237C129.449 73.6237 131.377 70.8141 129.908 66.6799C129.908 66.6799 134.267 64.5433 137.568 67.7909C137.568 67.7909 134.496 62.4067 128.081 64.9866C121.666 67.5665 126.479 73.7252 127.302 74.238C128.124 74.7507 129.449 73.6237 129.449 73.6237Z" fill="#263238"/>
<path d="M126.655 74.74C126.911 75.0796 127.231 75.365 127.598 75.5796C127.965 75.7942 128.37 75.9336 128.792 75.9899C129.86 76.1181 130.191 75.0231 129.694 74.0189C129.251 73.1109 128.151 71.9572 127.152 72.2937C126.153 72.6302 125.998 73.8801 126.655 74.74Z" fill="#EBB376"/>
<path d="M136.147 75.381C135.93 75.8833 135.752 76.4011 135.613 76.93C135.517 76.9353 135.42 76.9353 135.324 76.93C134.021 76.8018 133.465 76.3104 133.236 75.803C133.132 75.5549 133.088 75.2859 133.108 75.0178C133.115 74.865 133.144 74.714 133.193 74.5691C133.96 75.0079 134.813 75.2757 135.693 75.3543C135.976 75.3703 136.147 75.381 136.147 75.381Z" fill="#263238"/>
<path d="M135.704 75.3274L135.538 75.7814C134.309 75.6532 133.465 75.4022 133.118 74.9909C133.126 74.8381 133.155 74.6871 133.204 74.5422C133.971 74.981 134.823 75.2489 135.704 75.3274Z" fill="white"/>
<path d="M135.335 76.9032C134.032 76.775 133.476 76.2836 133.246 75.7761C133.74 75.8369 134.219 75.9833 134.662 76.2088C134.954 76.3637 135.189 76.6067 135.335 76.9032Z" fill="#DE5753"/>
<path opacity="0.2" d="M126.26 99.193C126.117 99.5824 125.851 99.9144 125.501 100.138C125.047 98.4345 124.572 96.6237 124.166 95.0106C125.234 93.7287 126.121 92.6604 126.121 92.6604C126.121 92.6604 127.339 96.4421 126.26 99.193Z" fill="black"/>
<path d="M124.754 84.9797C122.483 85.2575 115.545 102.494 115.962 105.218C116.378 107.943 131.302 106.703 131.302 106.703V102.553L122.59 100.796L125.603 94.8774C126.137 93.1646 126.359 91.37 126.26 89.5787C126.076 87.9591 125.564 86.3942 124.754 84.9797Z" fill="#1DA1FF"/>
<path d="M133.951 113.038L122.499 111.649C122.396 111.639 122.296 111.608 122.206 111.557C122.115 111.507 122.036 111.439 121.972 111.357C121.909 111.275 121.863 111.181 121.837 111.081C121.811 110.98 121.805 110.876 121.821 110.773L123.835 96.047C123.87 95.837 123.986 95.6489 124.157 95.5224C124.329 95.3959 124.542 95.3408 124.754 95.3687L136.206 96.7574C136.308 96.7671 136.408 96.7978 136.499 96.8475C136.59 96.8972 136.669 96.9648 136.733 97.0464C136.796 97.1279 136.842 97.2216 136.868 97.3216C136.894 97.4216 136.9 97.5259 136.884 97.6281L134.87 112.36C134.835 112.57 134.719 112.758 134.548 112.884C134.376 113.011 134.163 113.066 133.951 113.038Z" fill="#263238"/>
<path opacity="0.6" d="M133.951 113.038L122.499 111.649C122.396 111.639 122.296 111.608 122.206 111.557C122.115 111.507 122.036 111.439 121.972 111.357C121.909 111.275 121.863 111.181 121.837 111.081C121.811 110.98 121.805 110.876 121.821 110.773L123.835 96.047C123.87 95.837 123.986 95.6489 124.157 95.5224C124.329 95.3959 124.542 95.3408 124.754 95.3687L136.206 96.7574C136.308 96.7671 136.408 96.7978 136.499 96.8475C136.59 96.8972 136.669 96.9648 136.733 97.0464C136.796 97.1279 136.842 97.2216 136.868 97.3216C136.894 97.4216 136.9 97.5259 136.884 97.6281L134.87 112.36C134.835 112.57 134.719 112.758 134.548 112.884C134.376 113.011 134.163 113.066 133.951 113.038Z" fill="white"/>
<path opacity="0.2" d="M133.476 112.979L122.499 111.649C122.396 111.639 122.296 111.608 122.206 111.557C122.115 111.507 122.036 111.439 121.972 111.357C121.909 111.275 121.863 111.181 121.837 111.081C121.811 110.98 121.805 110.876 121.821 110.773L123.835 96.047C123.87 95.837 123.986 95.6489 124.157 95.5224C124.329 95.3959 124.542 95.3408 124.754 95.3687L135.73 96.6987C135.833 96.709 135.933 96.7403 136.023 96.7906C136.114 96.8409 136.193 96.9092 136.256 96.9913C136.319 97.0733 136.365 97.1674 136.39 97.2677C136.415 97.3681 136.42 97.4725 136.403 97.5747L134.395 112.301C134.357 112.51 134.241 112.696 134.07 112.822C133.899 112.948 133.687 113.005 133.476 112.979Z" fill="white"/>
<path d="M129.091 102.932C128.761 102.889 128.427 102.976 128.161 103.176C127.894 103.376 127.716 103.671 127.665 104C127.642 104.16 127.651 104.323 127.693 104.479C127.735 104.635 127.808 104.781 127.908 104.908C128.008 105.035 128.132 105.14 128.274 105.217C128.416 105.294 128.572 105.342 128.733 105.357C129.062 105.396 129.393 105.306 129.657 105.107C129.922 104.908 130.1 104.615 130.154 104.289C129.993 104.274 129.837 104.227 129.695 104.15C129.553 104.073 129.428 103.968 129.328 103.841C129.229 103.714 129.156 103.567 129.115 103.411C129.074 103.255 129.066 103.092 129.091 102.932Z" fill="#263238"/>
<path opacity="0.3" d="M132.974 97.5532L126.954 96.8214C126.811 96.8047 126.677 96.7446 126.569 96.6491C126.461 96.5536 126.385 96.4273 126.351 96.2873L126.164 95.5234L134.176 96.4956L133.765 97.1846C133.686 97.3194 133.568 97.4269 133.427 97.4928C133.286 97.5587 133.128 97.5798 132.974 97.5532Z" fill="black"/>
<path d="M134.496 102.045L131.088 103.023L130.373 105.277C130.699 107.114 134.224 106.345 134.224 106.345L134.95 106.799C135.086 106.884 135.24 106.934 135.399 106.945C135.559 106.956 135.718 106.928 135.864 106.863C136.01 106.798 136.138 106.699 136.237 106.573C136.335 106.447 136.402 106.299 136.43 106.142L136.804 104.006C136.835 103.831 136.818 103.65 136.753 103.485C136.689 103.319 136.581 103.174 136.441 103.065L135.372 102.227C135.251 102.129 135.109 102.061 134.956 102.029C134.804 101.998 134.646 102.003 134.496 102.045Z" fill="#EBB376"/>
<path d="M117.81 98.1245C116.613 101.399 115.812 104.262 115.962 105.245C116.373 107.969 131.302 106.73 131.302 106.73V102.579L122.59 100.795L117.81 98.1245Z" fill="#1DA1FF"/>
<path d="M150.382 53.6948H143.828C143.532 53.6948 143.239 53.7531 142.965 53.8664C142.692 53.9797 142.443 54.1457 142.234 54.355C142.025 54.5643 141.859 54.8128 141.745 55.0863C141.632 55.3598 141.574 55.6529 141.574 55.9489V62.3372C141.574 62.633 141.632 62.9258 141.745 63.199C141.859 63.4722 142.025 63.7203 142.234 63.9292C142.444 64.1381 142.692 64.3036 142.966 64.4163C143.239 64.529 143.532 64.5867 143.828 64.586H145.371L144.992 66.9683L146.883 64.586H150.382C150.978 64.586 151.55 64.3491 151.972 63.9273C152.394 63.5056 152.63 62.9336 152.63 62.3372V55.9275C152.625 55.3343 152.386 54.7673 151.965 54.3493C151.544 53.9314 150.975 53.6962 150.382 53.6948Z" fill="#1DA1FF"/>
<path d="M144.827 57.8558C145.398 56.9051 146.509 57.2523 147.097 57.9787C147.658 57.2362 148.763 56.8623 149.356 57.7971C150.355 59.3728 148.357 60.8737 147.412 61.4613L147.14 61.6322L146.867 61.472C145.906 60.9058 143.871 59.4583 144.827 57.8558Z" fill="white"/>
<path d="M75.0249 82.3036C78.374 85.4176 78.7639 96.1912 79.0417 100.769C79.2073 103.44 79.6186 106.297 79.9925 109.011C80.3877 111.81 80.7776 114.635 81.1462 117.45C81.1984 117.797 81.1189 118.151 80.9233 118.442C80.7278 118.733 80.4304 118.941 80.0895 119.024C79.7487 119.107 79.3891 119.059 79.0816 118.891C78.774 118.722 78.5406 118.444 78.4274 118.112C77.4606 115.388 76.6007 112.648 75.8529 109.86C74.846 106.344 74.1313 102.752 73.7163 99.1183C73.1448 95.171 72.648 90.994 71.4729 87.2177C71.3731 86.9379 71.2553 86.665 71.1204 86.4004C71.1577 86.4004 71.1845 86.4752 71.2379 86.5019C68.5351 83.9273 72.1619 79.8839 75.0196 82.3036H75.0249Z" fill="#263238"/>
<path opacity="0.7" d="M75.0249 82.3036C78.374 85.4176 78.7639 96.1912 79.0417 100.769C79.2073 103.44 79.6186 106.297 79.9925 109.011C80.3877 111.81 80.7776 114.635 81.1462 117.45C81.1984 117.797 81.1189 118.151 80.9233 118.442C80.7278 118.733 80.4304 118.941 80.0895 119.024C79.7487 119.107 79.3891 119.059 79.0816 118.891C78.774 118.722 78.5406 118.444 78.4274 118.112C77.4606 115.388 76.6007 112.648 75.8529 109.86C74.846 106.344 74.1313 102.752 73.7163 99.1183C73.1448 95.171 72.648 90.994 71.4729 87.2177C71.3731 86.9379 71.2553 86.665 71.1204 86.4004C71.1577 86.4004 71.1845 86.4752 71.2379 86.5019C68.5351 83.9273 72.1619 79.8839 75.0196 82.3036H75.0249Z" fill="white"/>
<path d="M81.5842 117.21L83.5925 120.719L79.1218 121.051C79.1218 121.051 77.5193 117.814 79.2233 117.055L81.5842 117.21Z" fill="#263238"/>
<path d="M83.4804 124.72L79.5438 123.7L79.1218 121.05L83.5926 120.719L83.4804 124.72Z" fill="#263238"/>
<path d="M56.6131 87.5061C53.7714 89.8617 50.2781 92.5003 48.3873 95.5182C48.3873 95.3206 48.3232 95.2672 48.3445 95.3633C48.9481 96.8589 50.2034 98.1142 51.3037 99.3908C52.8046 101.036 54.4338 102.692 56.0415 104.305C56.2731 104.55 56.4098 104.869 56.4271 105.205C56.4444 105.542 56.3411 105.873 56.1357 106.141C55.9304 106.408 55.6365 106.593 55.3069 106.663C54.9773 106.732 54.6336 106.682 54.3376 106.522C51.145 104.756 48.213 102.556 45.6257 99.9837C44.0233 98.3492 42.6719 96.1111 43.5586 93.7395C44.3598 91.3786 46.0691 89.4985 47.6875 87.7945C49.4016 86.0498 51.2501 84.4425 53.2159 82.9873C56.2712 80.8507 59.5028 85.1719 56.6131 87.5115V87.5061Z" fill="#263238"/>
<path opacity="0.7" d="M56.6131 87.5061C53.7714 89.8617 50.2781 92.5003 48.3873 95.5182C48.3873 95.3206 48.3232 95.2672 48.3445 95.3633C48.9481 96.8589 50.2034 98.1142 51.3037 99.3908C52.8046 101.036 54.4338 102.692 56.0415 104.305C56.2731 104.55 56.4098 104.869 56.4271 105.205C56.4444 105.542 56.3411 105.873 56.1357 106.141C55.9304 106.408 55.6365 106.593 55.3069 106.663C54.9773 106.732 54.6336 106.682 54.3376 106.522C51.145 104.756 48.213 102.556 45.6257 99.9837C44.0233 98.3492 42.6719 96.1111 43.5586 93.7395C44.3598 91.3786 46.0691 89.4985 47.6875 87.7945C49.4016 86.0498 51.2501 84.4425 53.2159 82.9873C56.2712 80.8507 59.5028 85.1719 56.6131 87.5115V87.5061Z" fill="white"/>
<path d="M60.1438 107.376C60.1438 107.376 60.3895 111.558 62.4353 118.887C63.7161 123.42 65.2716 127.87 67.093 132.214C68.1132 134.665 69.283 137.267 70.6237 140.007C71.2272 141.251 71.8736 142.517 72.5519 143.821C73.3371 166.009 85.788 188.571 85.788 188.571C86.477 188.929 88.886 188.539 88.87 187.839C87.0272 184.907 83.395 156.474 81.0555 142.971C80.9112 141.139 80.7029 139.174 80.4412 137.144C79.7575 131.701 78.748 125.777 77.7705 120.585C76.2268 112.386 74.7526 105.95 74.7526 105.95L70.645 106.351L60.1438 107.376Z" fill="#263238"/>
<path opacity="0.7" d="M60.1438 107.376C60.1438 107.376 60.3895 111.558 62.4353 118.887C63.7161 123.42 65.2716 127.87 67.093 132.214C68.1132 134.665 69.283 137.267 70.6237 140.007C71.2272 141.251 71.8736 142.517 72.5519 143.821C73.3371 166.009 85.788 188.571 85.788 188.571C86.477 188.929 88.886 188.539 88.87 187.839C87.0272 184.907 83.395 156.474 81.0555 142.971C80.9112 141.139 80.7029 139.174 80.4412 137.144C79.7575 131.701 78.748 125.777 77.7705 120.585C76.2268 112.386 74.7526 105.95 74.7526 105.95L70.645 106.351L60.1438 107.376Z" fill="white"/>
<path d="M55.251 138.095C55.5821 140.482 56.0041 143.03 56.5329 145.754C52.0835 160.598 61.228 189.554 61.228 189.554C62.777 189.858 64.1498 189.655 64.8442 189.137C63.1189 180.409 64.3581 157.719 65.6988 144.157C65.8163 142.929 65.9659 141.572 66.1314 140.13C66.4092 137.683 66.735 134.986 67.0876 132.203C67.6751 127.54 68.3428 122.631 68.941 118.283C69.6728 113.022 70.3138 108.573 70.6343 106.34C70.7785 105.357 70.8586 104.802 70.8586 104.802L58.0125 106.19C58.0125 106.19 54.7489 109.854 54.2735 121.29C54.0933 126.91 54.4204 132.534 55.251 138.095Z" fill="#263238"/>
<path opacity="0.7" d="M55.251 138.095C55.5821 140.482 56.0041 143.03 56.5329 145.754C52.0835 160.598 61.228 189.554 61.228 189.554C62.777 189.858 64.1498 189.655 64.8442 189.137C63.1189 180.409 64.3581 157.719 65.6988 144.157C65.8163 142.929 65.9659 141.572 66.1314 140.13C66.4092 137.683 66.735 134.986 67.0876 132.203C67.6751 127.54 68.3428 122.631 68.941 118.283C69.6728 113.022 70.3138 108.573 70.6343 106.34C70.7785 105.357 70.8586 104.802 70.8586 104.802L58.0125 106.19C58.0125 106.19 54.7489 109.854 54.2735 121.29C54.0933 126.91 54.4204 132.534 55.251 138.095Z" fill="white"/>
<path d="M73.1982 80.0708C77.2951 81.4382 77.5835 84.3439 79.9284 90.4812C79.1702 91.5917 78.1733 92.5186 77.0107 93.1942C75.848 93.8697 74.5491 94.2769 73.2089 94.3858C73.2089 94.3858 67.344 83.4519 73.1982 80.0708Z" fill="#263238"/>
<path opacity="0.8" d="M79.9497 90.4759C78.78 92.1833 77.0638 93.4417 75.0837 94.0439C74.4836 94.2398 73.8605 94.3565 73.2302 94.3911L73.1394 94.2095C72.6747 93.2908 70.6022 89.007 70.6183 85.2359C70.6183 83.1367 71.2806 81.1871 73.2195 80.0654C77.279 81.4328 77.5835 84.3653 79.9497 90.4759Z" fill="white"/>
<path opacity="0.1" d="M77.6476 92.7834C76.8573 93.3365 75.9848 93.7619 75.0623 94.0439C74.111 92.1576 73.4621 90.1334 73.1394 88.0455C73.756 87.9801 74.3781 88.0971 74.9288 88.3819C75.4796 88.6667 75.9345 89.107 76.2374 89.6479C76.8575 90.6189 77.3325 91.6752 77.6476 92.7834Z" fill="black"/>
<path d="M70.7305 62.8021C70.7305 62.8021 74.5389 72.3258 70.7305 80.6157C66.922 88.9056 56.2339 83.9274 55.1763 81.9404C54.1187 79.9534 56.5917 75.9046 56.5917 72.1976C56.5917 68.4907 55.6944 66.4716 56.3674 63.427C57.0404 60.3824 70.7305 62.8021 70.7305 62.8021Z" fill="#263238"/>
<path opacity="0.2" d="M55.2511 138.095C58.7656 139.278 62.4274 139.966 66.1315 140.141C66.4093 137.694 66.7351 134.997 67.0877 132.214C68.1079 134.666 69.2776 137.267 70.6183 140.007C74.0433 139.698 77.3765 138.731 80.4359 137.16C79.7522 131.717 78.7426 125.794 77.7652 120.602C76.4053 119.804 74.9347 119.212 73.4012 118.845C71.9426 118.491 70.4473 118.312 68.9465 118.31C66.7619 118.295 64.5811 118.494 62.4353 118.903C59.6328 119.421 56.8921 120.231 54.2576 121.318C54.0843 126.929 54.4168 132.544 55.2511 138.095Z" fill="black"/>
<path d="M55.1761 80.3807C55.8838 83.21 56.4383 86.0754 56.8373 88.9644C57.067 90.5668 57.2913 92.3668 57.473 94.3058C57.8481 98.2484 57.9908 102.21 57.9003 106.169H74.8166C74.8166 106.169 77.4873 86.4058 73.0753 79.9961C73.0753 80.0121 64.4061 75.9259 55.1761 80.3807Z" fill="#263238"/>
<path opacity="0.5" d="M55.1761 80.3807C55.8838 83.21 56.4383 86.0754 56.8373 88.9644C57.067 90.5668 57.2913 92.3668 57.473 94.3058C57.8481 98.2484 57.9908 102.21 57.9003 106.169H74.8166C74.8166 106.169 77.4873 86.4058 73.0753 79.9961C73.0753 80.0121 64.4061 75.9259 55.1761 80.3807Z" fill="white"/>
<path opacity="0.1" d="M56.8374 88.9646C57.0671 90.567 57.2914 92.3671 57.473 94.306C58.7147 91.4193 58.8851 88.1841 57.9538 85.1829L56.8374 88.9646Z" fill="black"/>
<path d="M63.9254 77.1384C58.6214 77.1384 57.9537 81.5024 57.9537 81.5024L60.4322 80.4341L67.7232 85.3055L69.5126 80.386L71.7613 80.8026C71.7613 80.8026 68.5351 77.1438 63.9254 77.1384Z" fill="#263238"/>
<path opacity="0.8" d="M63.9254 77.1384C58.6214 77.1384 57.9537 81.5024 57.9537 81.5024L60.4322 80.4341L67.7232 85.3055L69.5126 80.386L71.7613 80.8026C71.7613 80.8026 68.5351 77.1438 63.9254 77.1384Z" fill="white"/>
<path d="M67.4828 85.0171L60.6458 79.0668C62.3069 77.3628 61.4576 72.657 60.7633 70.1199L65.9498 74.2862C65.6026 76.2732 65.6881 78.3884 68.5884 79.0668C68.5884 79.0668 67.4774 85.0011 67.4828 85.0171Z" fill="#263238"/>
<path opacity="0.7" d="M67.4828 85.0171L60.6458 79.0668C62.3069 77.3628 61.4576 72.657 60.7633 70.1199L65.9498 74.2862C65.6026 76.2732 65.6881 78.3884 68.5884 79.0668C68.5884 79.0668 67.4774 85.0011 67.4828 85.0171Z" fill="white"/>
<path opacity="0.1" d="M62.8572 71.8237L65.9285 74.2861C65.8403 74.7511 65.7938 75.223 65.7896 75.6963C64.6893 75.536 63.1189 74.3395 62.9053 73.2018C62.8071 72.749 62.7908 72.2823 62.8572 71.8237Z" fill="black"/>
<path d="M58.5841 65.0081C59.3586 69.137 59.5989 70.8836 61.9545 72.876C65.4959 75.8512 70.3619 74.2754 70.8266 70.0664C71.2486 66.2793 69.9079 60.1688 65.6561 58.8067C64.7528 58.4829 63.7793 58.4066 62.8366 58.5858C61.8939 58.765 61.0163 59.1932 60.2948 59.8258C59.5733 60.4585 59.0342 61.2727 58.7334 62.1839C58.4326 63.0951 58.381 64.0702 58.5841 65.0081Z" fill="#263238"/>
<path opacity="0.7" d="M58.5841 65.0081C59.3586 69.137 59.5989 70.8836 61.9545 72.876C65.4959 75.8512 70.3619 74.2754 70.8266 70.0664C71.2486 66.2793 69.9079 60.1688 65.6561 58.8067C64.7528 58.4829 63.7793 58.4066 62.8366 58.5858C61.8939 58.765 61.0163 59.1932 60.2948 59.8258C59.5733 60.4585 59.0342 61.2727 58.7334 62.1839C58.4326 63.0951 58.381 64.0702 58.5841 65.0081Z" fill="white"/>
<path d="M62.1308 62.0115C59.8553 64.9493 64.5344 68.3304 59.8553 68.1328C55.1762 67.9352 57.0778 61.3332 59.8553 59.8322C62.6329 58.3313 62.1308 62.0115 62.1308 62.0115Z" fill="#263238"/>
<path d="M65.122 65.6811C65.17 66.0283 65.3944 66.3007 65.6187 66.2847C65.843 66.2686 65.9819 65.9695 65.9285 65.6223C65.8751 65.2751 65.6561 65.0027 65.4371 65.0187C65.2181 65.0348 65.0685 65.3285 65.122 65.6811Z" fill="#263238"/>
<path d="M69.3364 65.4301C69.3845 65.7826 69.6088 66.0497 69.8332 66.0337C70.0575 66.0177 70.1964 65.7185 70.1483 65.3713C70.1003 65.0241 69.8759 64.7517 69.6516 64.7678C69.4272 64.7838 69.267 65.0829 69.3364 65.4301Z" fill="#263238"/>
<path d="M69.5554 64.7944L70.3353 64.4739C70.3353 64.4739 70.0148 65.1789 69.5554 64.7944Z" fill="#263238"/>
<path opacity="0.2" d="M68.2467 66.0764C68.6667 66.8511 69.1836 67.569 69.785 68.213C69.625 68.3537 69.4351 68.4561 69.2297 68.5125C69.0242 68.569 68.8087 68.578 68.5992 68.5388L68.2467 66.0764Z" fill="black"/>
<path d="M66.8152 69.9862C67.0088 70.0051 67.2038 70.0051 67.3975 69.9862C67.4106 69.985 67.4234 69.981 67.435 69.9745C67.4465 69.9681 67.4566 69.9593 67.4647 69.9488C67.4727 69.9383 67.4785 69.9262 67.4816 69.9134C67.4847 69.9005 67.4852 69.8871 67.4829 69.8741C67.479 69.8477 67.4652 69.8237 67.4445 69.8069C67.4237 69.7901 67.3974 69.7816 67.3707 69.7833C66.9328 69.816 66.4931 69.7505 66.0837 69.5916C65.6743 69.4326 65.3056 69.1842 65.0045 68.8645C64.9951 68.855 64.9838 68.8475 64.9715 68.8423C64.9591 68.8371 64.9458 68.8345 64.9324 68.8345C64.919 68.8345 64.9057 68.8371 64.8933 68.8423C64.8809 68.8475 64.8697 68.855 64.8603 68.8645C64.8507 68.874 64.8432 68.8852 64.838 68.8976C64.8329 68.91 64.8302 68.9232 64.8302 68.9367C64.8302 68.9501 64.8329 68.9633 64.838 68.9757C64.8432 68.9881 64.8507 68.9993 64.8603 69.0088C65.3718 69.5609 66.0666 69.9083 66.8152 69.9862Z" fill="#263238"/>
<path d="M58.1835 68.9714C58.3523 69.3356 58.5954 69.6605 58.8971 69.9254C59.1988 70.1903 59.5524 70.3893 59.9354 70.5097C60.8969 70.7661 61.3135 69.6657 61.0037 68.5654C60.7153 67.5719 59.8713 66.2472 58.9313 66.4876C57.9912 66.728 57.6974 68.0046 58.1835 68.9714Z" fill="#263238"/>
<path d="M63.9255 63.8011C63.9525 63.8034 63.9796 63.7993 64.0047 63.7891C64.0297 63.7789 64.052 63.7629 64.0697 63.7423C64.2301 63.549 64.4363 63.3989 64.6695 63.3056C64.9027 63.2123 65.1556 63.1788 65.4051 63.2082C65.4307 63.2136 65.4572 63.2136 65.4829 63.2084C65.5086 63.2032 65.533 63.1927 65.5545 63.1777C65.576 63.1627 65.5942 63.1434 65.608 63.1211C65.6218 63.0988 65.6309 63.0739 65.6347 63.048C65.6401 62.9926 65.6252 62.9372 65.5927 62.892C65.5603 62.8468 65.5126 62.8149 65.4585 62.8022C65.1452 62.7572 64.8257 62.7913 64.529 62.9014C64.2324 63.0115 63.9679 63.1941 63.7599 63.4325C63.7227 63.4713 63.7019 63.523 63.7019 63.5768C63.7019 63.6305 63.7227 63.6822 63.7599 63.721C63.7779 63.7479 63.8027 63.7695 63.8318 63.7835C63.8609 63.7976 63.8932 63.8037 63.9255 63.8011Z" fill="#263238"/>
<path d="M70.2817 63.4055C70.3342 63.4088 70.3859 63.3916 70.426 63.3575C70.445 63.3386 70.4601 63.3161 70.4705 63.2914C70.4808 63.2666 70.4861 63.2401 70.4861 63.2132C70.4861 63.1864 70.4808 63.1599 70.4705 63.1351C70.4601 63.1104 70.445 63.0879 70.426 63.069C70.2149 62.8132 69.9472 62.6101 69.644 62.4756C69.3409 62.3412 69.0106 62.2792 68.6793 62.2945C68.6532 62.2968 68.628 62.3048 68.6052 62.3178C68.5825 62.3308 68.5628 62.3485 68.5476 62.3698C68.5324 62.3912 68.522 62.4155 68.517 62.4412C68.5121 62.4669 68.5128 62.4934 68.5191 62.5189C68.5283 62.5731 68.5575 62.6219 68.6011 62.6556C68.6446 62.6892 68.6993 62.7053 68.7541 62.7005C69.0166 62.6937 69.2772 62.747 69.516 62.8562C69.7549 62.9654 69.9656 63.1277 70.1322 63.3308C70.1705 63.374 70.2241 63.4008 70.2817 63.4055Z" fill="#263238"/>
<path d="M65.3409 65.0454L66.1261 64.741C66.1261 64.741 65.8003 65.43 65.3409 65.0454Z" fill="#263238"/>
<path d="M64.1071 59.9391C64.1071 59.9391 62.8625 65.4728 58.7656 66.0924C54.6688 66.712 55.6516 60.7029 61.0785 58.4916C66.5054 56.2802 70.9067 60.6816 71.1577 61.8673C71.209 62.2356 71.1578 62.6108 71.0099 62.9519C70.862 63.293 70.623 63.5867 70.3191 63.8009C70.3191 63.8009 68.3642 60.0459 64.1071 59.9391Z" fill="#263238"/>
<path opacity="0.7" d="M58.1835 68.9714C58.3523 69.3356 58.5954 69.6605 58.8971 69.9254C59.1988 70.1903 59.5524 70.3893 59.9354 70.5097C60.8969 70.7661 61.3135 69.6657 61.0037 68.5654C60.7153 67.5719 59.8713 66.2472 58.9313 66.4876C57.9912 66.728 57.6974 68.0046 58.1835 68.9714Z" fill="white"/>
<path d="M60.913 193.352H61.6287L61.8263 192.47L64.1979 193.539H70.2017C70.2017 193.539 71.1525 192.577 68.2948 191.813C68.1554 191.773 68.0196 191.721 67.8889 191.658C66.3665 190.943 64.1979 188.528 64.1979 188.528H60.9023C60.8039 188.681 60.7147 188.84 60.6352 189.004C60.272 189.73 59.6524 191.252 60.913 193.352Z" fill="#263238"/>
<path d="M60.6351 189.004C61.0678 188.518 63.0495 190.649 64.497 191.375C65.7896 192.016 67.2478 192.305 67.8888 191.648C66.3665 190.932 63.9682 187.813 63.9682 187.813H61.2975C61.2975 187.813 60.79 188.694 60.6351 189.004Z" fill="#263238"/>
<path opacity="0.7" d="M60.6351 189.004C61.0678 188.518 63.0495 190.649 64.497 191.375C65.7896 192.016 67.2478 192.305 67.8888 191.648C66.3665 190.932 63.9682 187.813 63.9682 187.813H61.2975C61.2975 187.813 60.79 188.694 60.6351 189.004Z" fill="white"/>
<path d="M85.9215 193.352H86.6372L86.8349 192.47L89.2064 193.539H95.2049C95.2049 193.539 96.161 192.577 93.3033 191.813C93.1636 191.774 93.0277 191.722 92.8974 191.658C91.3751 190.943 89.2064 188.528 89.2064 188.528H85.9108C85.8091 188.68 85.7181 188.839 85.6384 189.004C85.2912 189.73 84.6609 191.252 85.9215 193.352Z" fill="#263238"/>
<path d="M85.6383 189.004C86.0763 188.518 88.0526 190.649 89.5055 191.375C90.7981 192.016 92.251 192.305 92.8973 191.648C91.375 190.932 88.9767 187.813 88.9767 187.813H86.306C86.306 187.813 85.7932 188.694 85.6383 189.004Z" fill="#263238"/>
<path opacity="0.7" d="M85.6383 189.004C86.0763 188.518 88.0526 190.649 89.5055 191.375C90.7981 192.016 92.251 192.305 92.8973 191.648C91.375 190.932 88.9767 187.813 88.9767 187.813H86.306C86.306 187.813 85.7932 188.694 85.6383 189.004Z" fill="white"/>
<path d="M74.9769 104.812H57.9217L57.4624 107.008C57.4624 107.008 51.2022 115.682 54.375 137.304C54.375 137.304 68.0971 138.907 81.0127 136.113C81.0127 136.113 78.1123 113.903 75.0837 106.655L74.9769 104.812Z" fill="#263238"/>
<path d="M63.0068 106.703H57.2861L57.6333 105.069H63.0068V106.703Z" fill="#263238"/>
<path d="M73.4011 105.069H75.1157L75.2653 106.703H73.4011V105.069Z" fill="#263238"/>
<path d="M72.8296 105.069H63.5623V106.698H72.8296V105.069Z" fill="#263238"/>
<path opacity="0.6" d="M63.0068 106.703H57.2861L57.6333 105.069H63.0068V106.703Z" fill="white"/>
<path opacity="0.6" d="M73.4011 105.069H75.1157L75.2653 106.703H73.4011V105.069Z" fill="white"/>
<path opacity="0.6" d="M72.8296 105.069H63.5623V106.698H72.8296V105.069Z" fill="white"/>
<path d="M67.7019 106.826H70.2337C70.3989 106.826 70.5328 106.692 70.5328 106.527V105.245C70.5328 105.08 70.3989 104.946 70.2337 104.946H67.7019C67.5367 104.946 67.4028 105.08 67.4028 105.245V106.527C67.4028 106.692 67.5367 106.826 67.7019 106.826Z" fill="white"/>
<path d="M56.2339 79.9961C54.1988 80.1029 50.5025 83.6122 47.3992 87.6023C49.0202 89.5395 50.7959 91.3419 52.7085 92.9918L58.5841 88.8361C58.5841 88.8361 59.2785 82.2876 56.2339 79.9961Z" fill="#263238"/>
<path opacity="0.8" d="M56.2339 79.9961C54.1988 80.1029 50.5025 83.6122 47.3992 87.6023C49.0202 89.5395 50.7959 91.3419 52.7085 92.9918L58.5841 88.8361C58.5841 88.8361 59.2785 82.2876 56.2339 79.9961Z" fill="white"/>
<path opacity="0.6" d="M67.579 86.7799C67.578 86.8467 67.5968 86.9122 67.6331 86.9683C67.6694 87.0243 67.7216 87.0683 67.783 87.0946C67.8444 87.1209 67.9122 87.1283 67.9778 87.1159C68.0435 87.1035 68.1039 87.0719 68.1515 87.0251C68.1991 86.9782 68.2317 86.9183 68.2451 86.8529C68.2586 86.7875 68.2522 86.7195 68.2269 86.6577C68.2016 86.5959 68.1585 86.543 68.103 86.5058C68.0476 86.4686 67.9823 86.4487 67.9155 86.4487C67.8272 86.4487 67.7424 86.4834 67.6795 86.5454C67.6165 86.6074 67.5804 86.6916 67.579 86.7799Z" fill="white"/>
<path opacity="0.6" d="M68.5779 92.0036C68.7608 92.0036 68.909 91.8554 68.909 91.6725C68.909 91.4896 68.7608 91.3413 68.5779 91.3413C68.395 91.3413 68.2467 91.4896 68.2467 91.6725C68.2467 91.8554 68.395 92.0036 68.5779 92.0036Z" fill="white"/>
<path opacity="0.6" d="M68.9678 97.1101C69.1507 97.1101 69.2989 96.9618 69.2989 96.7789C69.2989 96.596 69.1507 96.4478 68.9678 96.4478C68.7849 96.4478 68.6366 96.596 68.6366 96.7789C68.6366 96.9618 68.7849 97.1101 68.9678 97.1101Z" fill="white"/>
<path opacity="0.6" d="M68.9678 102.537C69.1507 102.537 69.2989 102.389 69.2989 102.206C69.2989 102.023 69.1507 101.875 68.9678 101.875C68.7849 101.875 68.6366 102.023 68.6366 102.206C68.6366 102.389 68.7849 102.537 68.9678 102.537Z" fill="white"/>
<path d="M59.9354 108.124L59.7164 106.837C59.6751 106.598 59.5774 106.373 59.4316 106.18C59.2857 105.987 59.0959 105.831 58.8778 105.726L56.8107 104.727C56.4037 104.531 55.9558 104.435 55.5043 104.447C55.0528 104.459 54.6107 104.579 54.2148 104.796L53.718 105.074C53.937 107.211 55.7638 109.401 55.7638 109.401L56.2178 110.079C56.3064 110.221 56.4223 110.343 56.5587 110.439C56.6951 110.536 56.8493 110.604 57.0123 110.64C57.1753 110.677 57.3438 110.68 57.5082 110.651C57.6726 110.621 57.8295 110.559 57.9698 110.469L59.3265 109.588C59.5588 109.429 59.7401 109.206 59.8482 108.946C59.9563 108.686 59.9866 108.401 59.9354 108.124Z" fill="#263238"/>
<path opacity="0.7" d="M59.9354 108.124L59.7164 106.837C59.6751 106.598 59.5774 106.373 59.4316 106.18C59.2857 105.987 59.0959 105.831 58.8778 105.726L56.8107 104.727C56.4037 104.531 55.9558 104.435 55.5043 104.447C55.0528 104.459 54.6107 104.579 54.2148 104.796L53.718 105.074C53.937 107.211 55.7638 109.401 55.7638 109.401L56.2178 110.079C56.3064 110.221 56.4223 110.343 56.5587 110.439C56.6951 110.536 56.8493 110.604 57.0123 110.64C57.1753 110.677 57.3438 110.68 57.5082 110.651C57.6726 110.621 57.8295 110.559 57.9698 110.469L59.3265 109.588C59.5588 109.429 59.7401 109.206 59.8482 108.946C59.9563 108.686 59.9866 108.401 59.9354 108.124Z" fill="white"/>
<g opacity="0.7">
<path d="M81.5842 117.21L83.5925 120.719L79.1218 121.051C79.1218 121.051 77.5193 117.814 79.2233 117.055L81.5842 117.21Z" fill="white"/>
<path d="M83.4804 124.72L79.5438 123.7L79.1218 121.051L83.5926 120.72L83.4804 124.72Z" fill="white"/>
</g>
</svg>
